<?xml version="1.0" encoding="UTF-8"?>
<svg xmlns="http://www.w3.org/2000/svg" xmlns:xlink="http://www.w3.org/1999/xlink" width="375pt" height="374.999991pt" viewBox="0 0 375 374.999991" version="1.2">
<defs>
<g>
<symbol overflow="visible" id="glyph0-0">
<path style="stroke:none;" d="M -10.21875 -32.128906 C -9.085938 -34.871094 -8.523438 -37.496094 -8.597656 -40.039062 C -8.597656 -42.554688 -9.125 -44.851562 -9.992188 -46.945312 C -10.863281 -49.035156 -12.179688 -50.882812 -13.800781 -52.417969 C -15.417969 -53.953125 -17.234375 -55.222656 -19.308594 -56.078125 C -21.308594 -56.90625 -23.460938 -57.359375 -25.691406 -57.414062 C -27.921875 -57.46875 -30.15625 -57.09375 -32.324219 -56.253906 C -34.414062 -55.386719 -36.410156 -54.128906 -38.183594 -52.347656 C -39.960938 -50.566406 -41.488281 -48.339844 -42.617188 -45.597656 L -47.601562 -33.53125 C -48.03125 -32.492188 -48.207031 -31.4375 -48.140625 -30.546875 C -48.078125 -29.652344 -47.910156 -28.800781 -47.53125 -28.039062 C -47.183594 -27.203125 -46.742188 -26.585938 -46.199219 -26.015625 C -45.582031 -25.414062 -44.945312 -25.066406 -44.277344 -24.789062 L -3.554688 -7.96875 C -2.890625 -7.695312 -2.191406 -7.492188 -1.402344 -7.515625 C -0.539062 -7.503906 0.203125 -7.628906 1.011719 -7.902344 C 1.816406 -8.175781 2.609375 -8.628906 3.285156 -9.214844 C 3.960938 -9.804688 4.507812 -10.707031 4.9375 -11.742188 C 5.363281 -12.777344 5.582031 -13.726562 5.550781 -14.695312 C 5.484375 -15.589844 5.316406 -16.4375 4.9375 -17.203125 C 4.558594 -17.964844 4.121094 -18.578125 3.503906 -19.183594 C 2.929688 -19.679688 2.324219 -20.101562 1.65625 -20.378906 L -11.449219 -25.789062 C -11.820312 -25.945312 -12.085938 -26.140625 -12.183594 -26.527344 C -12.242188 -26.8125 -12.296875 -27.09375 -12.238281 -27.242188 Z M -25.664062 -31.664062 L -32.179688 -34.355469 C -32.550781 -34.507812 -32.816406 -34.703125 -32.917969 -35.089844 C -32.972656 -35.375 -33.03125 -35.65625 -32.96875 -35.804688 L -30.949219 -40.691406 C -30.339844 -42.171875 -29.40625 -43.175781 -28.328125 -43.683594 C -27.25 -44.191406 -25.957031 -44.175781 -24.550781 -43.597656 C -23.070312 -42.984375 -22.140625 -42.082031 -21.738281 -40.960938 C -21.335938 -39.839844 -21.453125 -38.503906 -22.066406 -37.023438 L -24.082031 -32.136719 C -24.144531 -31.988281 -24.308594 -31.796875 -24.625 -31.664062 C -24.894531 -31.429688 -25.222656 -31.480469 -25.664062 -31.664062 Z M -25.664062 -31.664062 "/>
</symbol>
<symbol overflow="visible" id="glyph0-1">
<path style="stroke:none;" d="M -8.804688 -41.425781 C -9.199219 -44.882812 -10.207031 -47.898438 -11.785156 -50.371094 C -13.394531 -52.769531 -15.945312 -54.777344 -19.351562 -56.183594 C -21.351562 -57.007812 -23.53125 -57.390625 -25.765625 -57.445312 C -27.996094 -57.5 -30.230469 -57.125 -32.398438 -56.285156 C -34.488281 -55.414062 -36.484375 -54.160156 -38.257812 -52.378906 C -40.035156 -50.597656 -41.5625 -48.367188 -42.691406 -45.628906 L -47.675781 -33.558594 C -48.105469 -32.523438 -48.28125 -31.46875 -48.214844 -30.574219 C -48.152344 -29.683594 -47.984375 -28.832031 -47.605469 -28.070312 C -47.257812 -27.234375 -46.816406 -26.617188 -46.273438 -26.046875 C -45.65625 -25.445312 -45.019531 -25.09375 -44.351562 -24.820312 L -3.628906 -8 C -2.964844 -7.722656 -2.265625 -7.523438 -1.476562 -7.542969 C -0.613281 -7.535156 0.128906 -7.660156 0.9375 -7.933594 C 1.742188 -8.207031 2.535156 -8.660156 3.210938 -9.246094 C 3.890625 -9.835938 4.433594 -10.734375 4.863281 -11.773438 C 5.289062 -12.808594 5.507812 -13.757812 5.476562 -14.726562 C 5.410156 -15.621094 5.242188 -16.46875 4.863281 -17.234375 C 4.484375 -17.996094 4.046875 -18.609375 3.429688 -19.210938 C 2.855469 -19.710938 2.25 -20.132812 1.582031 -20.410156 L -11.96875 -26.003906 C -12.265625 -26.128906 -12.457031 -26.292969 -12.46875 -26.472656 C -12.480469 -26.652344 -12.523438 -26.753906 -12.492188 -26.828125 C -12.371094 -27.125 -11.996094 -27.402344 -11.503906 -27.546875 L 9.4375 -31.03125 C 10.539062 -31.183594 11.511719 -31.648438 12.398438 -32.324219 C 13.355469 -32.964844 14.039062 -33.984375 14.558594 -35.246094 C 14.984375 -36.28125 15.203125 -37.230469 15.140625 -38.125 C 15.074219 -39.015625 14.90625 -39.867188 14.527344 -40.628906 C 14.222656 -41.363281 13.785156 -41.976562 13.167969 -42.578125 C 12.546875 -43.179688 11.941406 -43.605469 11.277344 -43.878906 C 10.238281 -44.308594 9.082031 -44.441406 7.949219 -44.214844 C 7.457031 -44.070312 6.324219 -43.847656 4.472656 -43.570312 C 2.699219 -43.261719 0.75 -42.941406 -1.382812 -42.609375 C -2.441406 -42.351562 -3.46875 -42.171875 -4.394531 -42.03125 C -5.320312 -41.894531 -6.242188 -41.753906 -6.988281 -41.628906 C -7.761719 -41.429688 -8.375 -41.421875 -8.804688 -41.425781 Z M -25.695312 -31.589844 L -32.210938 -34.28125 C -32.582031 -34.433594 -32.847656 -34.628906 -32.949219 -35.015625 C -33.003906 -35.300781 -33.058594 -35.582031 -33 -35.730469 L -30.980469 -40.617188 C -30.367188 -42.097656 -29.433594 -43.101562 -28.359375 -43.609375 C -27.28125 -44.117188 -25.988281 -44.105469 -24.582031 -43.523438 C -23.101562 -42.910156 -22.171875 -42.007812 -21.769531 -40.886719 C -21.363281 -39.765625 -21.484375 -38.429688 -22.09375 -36.949219 L -24.113281 -32.0625 C -24.175781 -31.914062 -24.339844 -31.722656 -24.65625 -31.59375 C -24.925781 -31.355469 -25.253906 -31.40625 -25.695312 -31.589844 Z M -25.695312 -31.589844 "/>
</symbol>
<symbol overflow="visible" id="glyph0-2">
<path style="stroke:none;" d="M 4.863281 -11.773438 L 13.515625 -32.726562 C 13.945312 -33.761719 14.164062 -34.714844 14.128906 -35.679688 C 14.066406 -36.574219 13.898438 -37.421875 13.519531 -38.1875 C 13.140625 -38.949219 12.703125 -39.566406 12.082031 -40.167969 C 11.507812 -40.664062 10.902344 -41.085938 10.238281 -41.363281 C 9.570312 -41.636719 8.84375 -41.765625 7.980469 -41.773438 C 7.191406 -41.753906 6.445312 -41.628906 5.640625 -41.355469 C 4.875 -40.976562 4.15625 -40.492188 3.480469 -39.90625 C 2.804688 -39.316406 2.214844 -38.523438 1.789062 -37.484375 L -3.898438 -23.714844 C -3.960938 -23.566406 -4.128906 -23.375 -4.367188 -23.210938 C -4.636719 -22.976562 -4.964844 -23.027344 -5.410156 -23.210938 L -13.109375 -26.390625 C -13.480469 -26.542969 -13.746094 -26.738281 -13.84375 -27.125 C -13.902344 -27.410156 -13.957031 -27.695312 -13.894531 -27.839844 L -9.796875 -37.761719 C -9.371094 -38.800781 -9.152344 -39.75 -9.214844 -40.644531 C -9.28125 -41.535156 -9.449219 -42.386719 -9.828125 -43.148438 C -10.207031 -43.910156 -10.644531 -44.527344 -11.261719 -45.128906 C -11.808594 -45.699219 -12.410156 -46.125 -13.078125 -46.398438 C -13.746094 -46.675781 -14.472656 -46.800781 -15.335938 -46.8125 C -16.125 -46.789062 -16.867188 -46.664062 -17.675781 -46.390625 C -18.4375 -46.011719 -19.15625 -45.53125 -19.835938 -44.941406 C -20.511719 -44.355469 -21.097656 -43.558594 -21.527344 -42.519531 L -25.625 -32.597656 C -25.6875 -32.453125 -25.851562 -32.261719 -26.09375 -32.097656 C -26.363281 -31.863281 -26.6875 -31.914062 -27.132812 -32.097656 L -32.242188 -34.207031 C -32.613281 -34.359375 -32.878906 -34.554688 -32.976562 -34.941406 C -33.035156 -35.226562 -33.089844 -35.507812 -33.03125 -35.65625 L -27.339844 -49.429688 C -26.914062 -50.464844 -26.695312 -51.417969 -26.726562 -52.382812 C -26.792969 -53.277344 -26.960938 -54.125 -27.339844 -54.890625 C -27.644531 -55.621094 -28.082031 -56.238281 -28.703125 -56.839844 C -29.277344 -57.335938 -29.882812 -57.757812 -30.546875 -58.035156 C -31.214844 -58.308594 -31.941406 -58.4375 -32.804688 -58.445312 C -33.59375 -58.425781 -34.339844 -58.300781 -35.144531 -58.027344 C -35.90625 -57.648438 -36.628906 -57.164062 -37.304688 -56.578125 C -37.980469 -55.992188 -38.570312 -55.195312 -38.996094 -54.15625 L -47.652344 -33.203125 C -48.078125 -32.167969 -48.253906 -31.113281 -48.191406 -30.21875 C -48.125 -29.324219 -47.957031 -28.476562 -47.578125 -27.710938 C -47.230469 -26.875 -46.792969 -26.261719 -46.246094 -25.6875 C -45.628906 -25.085938 -44.992188 -24.738281 -44.402344 -24.492188 L -3.605469 -7.640625 C -2.863281 -7.335938 -2.0625 -7.179688 -1.273438 -7.199219 C -0.410156 -7.191406 0.367188 -7.390625 1.128906 -7.769531 C 1.964844 -8.117188 2.683594 -8.597656 3.316406 -9.289062 C 3.949219 -9.984375 4.464844 -10.808594 4.863281 -11.773438 Z M 4.863281 -11.773438 "/>
</symbol>
<symbol overflow="visible" id="glyph0-3">
<path style="stroke:none;" d="M -47.515625 -33.320312 C -47.945312 -32.285156 -48.121094 -31.230469 -48.054688 -30.335938 C -47.992188 -29.441406 -47.820312 -28.59375 -47.445312 -27.832031 C -47.097656 -26.992188 -46.65625 -26.378906 -46.113281 -25.808594 C -45.496094 -25.203125 -44.859375 -24.855469 -44.265625 -24.609375 C -43.527344 -24.304688 -42.722656 -24.148438 -41.9375 -24.167969 C -41.148438 -24.1875 -40.402344 -24.316406 -39.640625 -24.691406 C -38.832031 -24.964844 -38.113281 -25.449219 -37.480469 -26.140625 C -36.878906 -26.757812 -36.363281 -27.585938 -35.933594 -28.625 L -32.386719 -37.210938 C -32.328125 -37.359375 -32.085938 -37.523438 -31.847656 -37.683594 C -31.53125 -37.8125 -31.175781 -37.839844 -30.804688 -37.6875 L 2.957031 -23.742188 C 3.625 -23.464844 4.320312 -23.265625 5.109375 -23.285156 C 5.972656 -23.273438 6.71875 -23.402344 7.523438 -23.675781 C 8.332031 -23.949219 9.125 -24.398438 9.800781 -24.988281 C 10.476562 -25.574219 11.023438 -26.476562 11.449219 -27.511719 C 11.878906 -28.550781 12.097656 -29.5 12.0625 -30.46875 C 12 -31.359375 11.832031 -32.210938 11.453125 -32.972656 C 11.074219 -33.734375 10.632812 -34.351562 10.015625 -34.953125 C 9.441406 -35.449219 8.835938 -35.875 8.171875 -36.148438 L -25.59375 -50.09375 C -25.964844 -50.246094 -26.230469 -50.445312 -26.328125 -50.832031 C -26.386719 -51.113281 -26.441406 -51.398438 -26.378906 -51.546875 L -22.832031 -60.136719 C -22.40625 -61.171875 -22.1875 -62.121094 -22.21875 -63.089844 C -22.285156 -63.980469 -22.453125 -64.832031 -22.832031 -65.59375 C -23.136719 -66.328125 -23.574219 -66.941406 -24.191406 -67.542969 C -24.839844 -68.074219 -25.445312 -68.496094 -26.113281 -68.769531 C -26.707031 -69.015625 -27.433594 -69.144531 -28.296875 -69.152344 C -29.085938 -69.132812 -29.828125 -69.007812 -30.636719 -68.730469 C -31.398438 -68.355469 -32.117188 -67.871094 -32.792969 -67.285156 C -33.472656 -66.695312 -34.058594 -65.898438 -34.488281 -64.863281 Z M -47.515625 -33.320312 "/>
</symbol>
<symbol overflow="visible" id="glyph0-4">
<path style="stroke:none;" d="M -3.542969 -7.789062 C -2.800781 -7.484375 -2.074219 -7.359375 -1.285156 -7.378906 C -0.421875 -7.367188 0.320312 -7.496094 1.085938 -7.871094 C 1.890625 -8.144531 2.609375 -8.628906 3.242188 -9.320312 C 3.917969 -9.910156 4.433594 -10.734375 4.863281 -11.773438 C 5.289062 -12.808594 5.507812 -13.757812 5.476562 -14.726562 C 5.410156 -15.621094 5.242188 -16.46875 4.863281 -17.234375 C 4.484375 -17.996094 4.046875 -18.609375 3.429688 -19.210938 C 2.855469 -19.710938 2.25 -20.132812 1.582031 -20.410156 L -39.140625 -37.230469 C -39.808594 -37.503906 -40.535156 -37.632812 -41.398438 -37.640625 C -42.1875 -37.621094 -42.933594 -37.496094 -43.738281 -37.21875 C -44.5 -36.84375 -45.222656 -36.359375 -45.898438 -35.773438 C -46.574219 -35.183594 -47.164062 -34.386719 -47.589844 -33.351562 C -48.019531 -32.316406 -48.195312 -31.261719 -48.128906 -30.367188 C -48.066406 -29.472656 -47.894531 -28.625 -47.519531 -27.859375 C -47.171875 -27.023438 -46.730469 -26.410156 -46.1875 -25.835938 C -45.570312 -25.234375 -44.933594 -24.886719 -44.339844 -24.640625 Z M -3.542969 -7.789062 "/>
</symbol>
<symbol overflow="visible" id="glyph0-5">
<path style="stroke:none;" d=""/>
</symbol>
<symbol overflow="visible" id="glyph0-6">
<path style="stroke:none;" d="M 10.042969 -24.105469 C 11.632812 -27.957031 12.511719 -31.757812 12.628906 -35.609375 C 12.746094 -39.460938 12.160156 -43.082031 10.875 -46.472656 C 9.558594 -49.789062 7.613281 -52.847656 4.9375 -55.601562 C 2.230469 -58.277344 -1.019531 -60.488281 -5.019531 -62.136719 C -8.941406 -63.757812 -12.800781 -64.484375 -16.609375 -64.5 C -20.449219 -64.4375 -23.984375 -63.644531 -27.257812 -62.222656 C -30.5625 -60.726562 -33.53125 -58.574219 -36.136719 -55.835938 C -38.769531 -53.023438 -40.9375 -49.671875 -42.527344 -45.820312 L -47.601562 -33.53125 C -48.03125 -32.492188 -48.207031 -31.4375 -48.171875 -30.472656 C -48.140625 -29.503906 -47.96875 -28.652344 -47.59375 -27.890625 C -47.214844 -27.128906 -46.773438 -26.511719 -46.230469 -25.941406 C -45.613281 -25.339844 -44.976562 -24.992188 -44.308594 -24.714844 L -3.660156 -7.925781 C -2.992188 -7.652344 -2.296875 -7.449219 -1.433594 -7.441406 C -0.570312 -7.429688 0.171875 -7.554688 0.980469 -7.828125 C 1.785156 -8.101562 2.582031 -8.554688 3.285156 -9.214844 C 3.992188 -9.878906 4.539062 -10.78125 4.96875 -11.816406 Z M -1.730469 -28.96875 L -3.871094 -23.785156 C -3.929688 -23.640625 -4.097656 -23.449219 -4.335938 -23.285156 C -4.605469 -23.050781 -4.933594 -23.101562 -5.378906 -23.28125 L -32.179688 -34.355469 C -32.550781 -34.507812 -32.816406 -34.703125 -32.917969 -35.089844 C -32.972656 -35.375 -33.03125 -35.65625 -32.96875 -35.804688 L -30.828125 -40.988281 C -29.847656 -43.359375 -28.59375 -45.351562 -27.085938 -46.898438 C -25.613281 -48.367188 -23.933594 -49.496094 -22.082031 -50.203125 C -20.257812 -50.839844 -18.378906 -51.1875 -16.359375 -51.046875 C -14.335938 -50.90625 -12.257812 -50.480469 -10.261719 -49.65625 C -8.1875 -48.800781 -6.488281 -47.664062 -4.957031 -46.335938 C -3.425781 -45.011719 -2.265625 -43.40625 -1.421875 -41.671875 C -0.609375 -39.863281 -0.214844 -37.878906 -0.210938 -35.796875 C -0.234375 -33.640625 -0.75 -31.339844 -1.730469 -28.96875 Z M -1.730469 -28.96875 "/>
</symbol>
<symbol overflow="visible" id="glyph0-7">
<path style="stroke:none;" d="M -31.542969 -55.414062 L -4.679688 -44.488281 C -3.644531 -44.0625 -2.699219 -43.410156 -1.886719 -42.644531 C -1.078125 -41.875 -0.476562 -41.019531 -0.0429688 -39.976562 C 0.390625 -38.929688 0.574219 -37.898438 0.621094 -36.753906 C 0.667969 -35.609375 0.460938 -34.480469 0 -33.367188 L -1.039062 -30.851562 C -1.527344 -29.667969 -2.179688 -28.722656 -3.019531 -27.941406 C -3.863281 -27.164062 -4.714844 -26.5625 -5.761719 -26.128906 C -6.808594 -25.695312 -7.835938 -25.511719 -8.953125 -25.539062 C -10.097656 -25.492188 -11.195312 -25.773438 -12.234375 -26.203125 L -39.183594 -37.332031 C -39.851562 -37.609375 -40.578125 -37.734375 -41.441406 -37.746094 C -42.230469 -37.722656 -42.976562 -37.597656 -43.78125 -37.324219 C -44.546875 -36.945312 -45.265625 -36.464844 -45.941406 -35.875 C -46.617188 -35.289062 -47.207031 -34.492188 -47.632812 -33.457031 C -48.0625 -32.417969 -48.238281 -31.363281 -48.171875 -30.472656 C -48.109375 -29.578125 -47.941406 -28.726562 -47.5625 -27.964844 C -47.214844 -27.128906 -46.773438 -26.511719 -46.230469 -25.941406 C -45.613281 -25.339844 -44.976562 -24.992188 -44.308594 -24.714844 L -17.359375 -13.582031 C -14.988281 -12.605469 -12.511719 -12.101562 -9.742188 -12.085938 C -7.007812 -11.996094 -4.382812 -12.472656 -1.796875 -13.484375 C 0.859375 -14.464844 3.230469 -16 5.453125 -18.03125 C 7.679688 -20.058594 9.433594 -22.625 10.777344 -25.882812 L 11.816406 -28.402344 C 13.132812 -31.585938 13.734375 -34.71875 13.589844 -37.726562 C 13.441406 -40.730469 12.820312 -43.417969 11.628906 -45.988281 C 10.480469 -48.457031 8.957031 -50.644531 6.984375 -52.585938 C 4.984375 -54.453125 2.902344 -55.921875 0.53125 -56.898438 L -26.417969 -68.03125 C -27.085938 -68.304688 -27.8125 -68.433594 -28.675781 -68.441406 C -29.464844 -68.421875 -30.210938 -68.296875 -31.015625 -68.023438 C -31.777344 -67.644531 -32.5 -67.160156 -33.175781 -66.574219 C -33.851562 -65.984375 -34.441406 -65.191406 -34.867188 -64.152344 C -35.296875 -63.117188 -35.472656 -62.0625 -35.40625 -61.167969 C -35.34375 -60.273438 -35.175781 -59.425781 -34.796875 -58.664062 C -34.449219 -57.824219 -34.007812 -57.210938 -33.464844 -56.640625 C -32.847656 -56.039062 -32.210938 -55.6875 -31.542969 -55.414062 Z M -31.542969 -55.414062 "/>
</symbol>
</g>
<clipPath id="clip1">
  <path d="M 125 33 L 264 33 L 264 342.84375 L 125 342.84375 Z M 125 33 "/>
</clipPath>
<clipPath id="clip2">
  <path d="M 125 33 L 264 33 L 264 342.84375 L 125 342.84375 Z M 125 33 "/>
</clipPath>
</defs>
<g id="surface1">
<path style=" stroke:none;fill-rule:nonzero;fill:rgb(15.289307%,31.369019%,64.309692%);fill-opacity:1;" d="M 94.625 277.871094 C 91.726562 277.871094 88.828125 276.765625 86.613281 274.550781 L 0.472656 188.355469 L 86.613281 102.160156 C 91.039062 97.734375 98.210938 97.734375 102.636719 102.160156 C 107.058594 106.585938 107.058594 113.761719 102.636719 118.191406 L 32.511719 188.355469 L 102.636719 258.523438 C 107.058594 262.945312 107.058594 270.125 102.636719 274.550781 C 100.425781 276.765625 97.523438 277.871094 94.625 277.871094 "/>
<path style=" stroke:none;fill-rule:nonzero;fill:rgb(15.289307%,31.369019%,64.309692%);fill-opacity:1;" d="M 280.425781 277.871094 C 277.527344 277.871094 274.625 276.765625 272.414062 274.550781 C 267.992188 270.125 267.992188 262.945312 272.414062 258.523438 L 342.539062 188.355469 L 272.414062 118.191406 C 267.992188 113.761719 267.992188 106.585938 272.414062 102.160156 C 276.839844 97.734375 284.011719 97.734375 288.4375 102.160156 L 374.578125 188.355469 L 288.4375 274.550781 C 286.222656 276.765625 283.324219 277.871094 280.425781 277.871094 "/>
<g clip-path="url(#clip1)" clip-rule="nonzero">
<path style=" stroke:none;fill-rule:nonzero;fill:rgb(15.289307%,31.369019%,64.309692%);fill-opacity:1;" d="M 136.699219 342.863281 C 135.296875 342.863281 133.863281 342.601562 132.480469 342.042969 C 126.675781 339.710938 123.859375 333.109375 126.191406 327.300781 L 241.222656 40.957031 C 243.558594 35.148438 250.152344 32.332031 255.957031 34.664062 C 261.765625 37 264.578125 43.601562 262.242188 49.410156 L 147.214844 335.753906 C 145.4375 340.179688 141.191406 342.863281 136.699219 342.863281 "/>
</g>
<path style=" stroke:none;fill-rule:nonzero;fill:rgb(100%,100%,100%);fill-opacity:1;" d="M 94.625 277.871094 C 91.726562 277.871094 88.828125 276.765625 86.613281 274.550781 L 0.472656 188.355469 L 86.613281 102.160156 C 91.039062 97.734375 98.210938 97.734375 102.636719 102.160156 C 107.058594 106.585938 107.058594 113.761719 102.636719 118.191406 L 32.511719 188.355469 L 102.636719 258.523438 C 107.058594 262.945312 107.058594 270.125 102.636719 274.550781 C 100.425781 276.765625 97.523438 277.871094 94.625 277.871094 "/>
<path style=" stroke:none;fill-rule:nonzero;fill:rgb(100%,100%,100%);fill-opacity:1;" d="M 280.425781 277.871094 C 277.527344 277.871094 274.625 276.765625 272.414062 274.550781 C 267.992188 270.125 267.992188 262.945312 272.414062 258.523438 L 342.539062 188.355469 L 272.414062 118.191406 C 267.992188 113.761719 267.992188 106.585938 272.414062 102.160156 C 276.839844 97.734375 284.011719 97.734375 288.4375 102.160156 L 374.578125 188.355469 L 288.4375 274.550781 C 286.222656 276.765625 283.324219 277.871094 280.425781 277.871094 "/>
<g clip-path="url(#clip2)" clip-rule="nonzero">
<path style=" stroke:none;fill-rule:nonzero;fill:rgb(100%,100%,100%);fill-opacity:1;" d="M 136.699219 342.863281 C 135.296875 342.863281 133.863281 342.601562 132.480469 342.042969 C 126.675781 339.710938 123.859375 333.109375 126.191406 327.300781 L 241.222656 40.957031 C 243.558594 35.148438 250.152344 32.332031 255.957031 34.664062 C 261.765625 37 264.578125 43.601562 262.242188 49.410156 L 147.214844 335.753906 C 145.4375 340.179688 141.191406 342.863281 136.699219 342.863281 "/>
</g>
<g style="fill:rgb(15.289307%,31.369019%,64.709473%);fill-opacity:0.302;">
  <use xlink:href="#glyph0-0" x="127.044738" y="312.517137"/>
</g>
<g style="fill:rgb(15.289307%,31.369019%,64.709473%);fill-opacity:0.302;">
  <use xlink:href="#glyph0-1" x="146.342231" y="265.796073"/>
</g>
<g style="fill:rgb(15.289307%,31.369019%,64.709473%);fill-opacity:0.302;">
  <use xlink:href="#glyph0-2" x="165.853801" y="218.556711"/>
</g>
<g style="fill:rgb(15.289307%,31.369019%,64.709473%);fill-opacity:0.302;">
  <use xlink:href="#glyph0-2" x="184.264409" y="173.982883"/>
</g>
<g style="fill:rgb(15.289307%,31.369019%,64.709473%);fill-opacity:0.302;">
  <use xlink:href="#glyph0-3" x="202.675016" y="129.409054"/>
</g>
<g style="fill:rgb(15.289307%,31.369019%,64.709473%);fill-opacity:0.302;">
  <use xlink:href="#glyph0-4" x="225.489483" y="74.173065"/>
</g>
<g style="fill:rgb(15.289307%,31.369019%,64.709473%);fill-opacity:0.502;">
  <use xlink:href="#glyph0-0" x="126.8762" y="314.009697"/>
</g>
<g style="fill:rgb(15.289307%,31.369019%,64.709473%);fill-opacity:0.502;">
  <use xlink:href="#glyph0-1" x="146.173694" y="267.288633"/>
</g>
<g style="fill:rgb(15.289307%,31.369019%,64.709473%);fill-opacity:0.502;">
  <use xlink:href="#glyph0-2" x="165.685263" y="220.049271"/>
</g>
<g style="fill:rgb(15.289307%,31.369019%,64.709473%);fill-opacity:0.502;">
  <use xlink:href="#glyph0-2" x="184.095871" y="175.475443"/>
</g>
<g style="fill:rgb(15.289307%,31.369019%,64.709473%);fill-opacity:0.502;">
  <use xlink:href="#glyph0-3" x="202.506479" y="130.901614"/>
</g>
<g style="fill:rgb(15.289307%,31.369019%,64.709473%);fill-opacity:0.502;">
  <use xlink:href="#glyph0-4" x="225.320945" y="75.665625"/>
</g>
<g style="fill:rgb(100%,100%,100%);fill-opacity:1;">
  <use xlink:href="#glyph0-0" x="126.707663" y="315.502283"/>
</g>
<g style="fill:rgb(100%,100%,100%);fill-opacity:1;">
  <use xlink:href="#glyph0-1" x="146.005156" y="268.781219"/>
</g>
<g style="fill:rgb(100%,100%,100%);fill-opacity:1;">
  <use xlink:href="#glyph0-2" x="165.516726" y="221.541857"/>
</g>
<g style="fill:rgb(100%,100%,100%);fill-opacity:1;">
  <use xlink:href="#glyph0-2" x="183.927334" y="176.968029"/>
</g>
<g style="fill:rgb(100%,100%,100%);fill-opacity:1;">
  <use xlink:href="#glyph0-3" x="202.337941" y="132.394201"/>
</g>
<g style="fill:rgb(100%,100%,100%);fill-opacity:1;">
  <use xlink:href="#glyph0-4" x="225.152408" y="77.158212"/>
</g>
<g style="fill:rgb(15.289307%,31.369019%,64.709473%);fill-opacity:0.302;">
  <use xlink:href="#glyph0-5" x="235.244852" y="50.554391"/>
</g>
<g style="fill:rgb(15.289307%,31.369019%,64.709473%);fill-opacity:0.302;">
  <use xlink:href="#glyph0-5" x="244.419573" y="28.341521"/>
</g>
<g style="fill:rgb(15.289307%,31.369019%,64.709473%);fill-opacity:0.302;">
  <use xlink:href="#glyph0-5" x="253.594294" y="6.128651"/>
</g>
<g style="fill:rgb(15.289307%,31.369019%,64.709473%);fill-opacity:0.502;">
  <use xlink:href="#glyph0-5" x="235.076314" y="52.046951"/>
</g>
<g style="fill:rgb(15.289307%,31.369019%,64.709473%);fill-opacity:0.502;">
  <use xlink:href="#glyph0-5" x="244.251035" y="29.834081"/>
</g>
<g style="fill:rgb(15.289307%,31.369019%,64.709473%);fill-opacity:0.502;">
  <use xlink:href="#glyph0-5" x="253.425756" y="7.621211"/>
</g>
<g style="fill:rgb(100%,100%,100%);fill-opacity:1;">
  <use xlink:href="#glyph0-5" x="234.907777" y="53.539538"/>
</g>
<g style="fill:rgb(100%,100%,100%);fill-opacity:1;">
  <use xlink:href="#glyph0-5" x="244.082498" y="31.326668"/>
</g>
<g style="fill:rgb(100%,100%,100%);fill-opacity:1;">
  <use xlink:href="#glyph0-5" x="253.257218" y="9.113798"/>
</g>
<g style="fill:rgb(15.289307%,31.369019%,64.709473%);fill-opacity:0.302;">
  <use xlink:href="#glyph0-5" x="203.864197" y="344.246359"/>
</g>
<g style="fill:rgb(15.289307%,31.369019%,64.709473%);fill-opacity:0.302;">
  <use xlink:href="#glyph0-5" x="213.038918" y="322.033489"/>
</g>
<g style="fill:rgb(15.289307%,31.369019%,64.709473%);fill-opacity:0.502;">
  <use xlink:href="#glyph0-5" x="203.695659" y="345.738919"/>
</g>
<g style="fill:rgb(15.289307%,31.369019%,64.709473%);fill-opacity:0.502;">
  <use xlink:href="#glyph0-5" x="212.87038" y="323.526049"/>
</g>
<g style="fill:rgb(100%,100%,100%);fill-opacity:1;">
  <use xlink:href="#glyph0-5" x="203.527122" y="347.231505"/>
</g>
<g style="fill:rgb(100%,100%,100%);fill-opacity:1;">
  <use xlink:href="#glyph0-5" x="212.701842" y="325.018635"/>
</g>
<g style="fill:rgb(15.289307%,31.369019%,64.709473%);fill-opacity:0.302;">
  <use xlink:href="#glyph0-6" x="222.213627" y="299.820648"/>
</g>
<g style="fill:rgb(15.289307%,31.369019%,64.709473%);fill-opacity:0.302;">
  <use xlink:href="#glyph0-7" x="245.731493" y="242.881662"/>
</g>
<g style="fill:rgb(15.289307%,31.369019%,64.709473%);fill-opacity:0.302;">
  <use xlink:href="#glyph0-6" x="268.24014" y="188.38609"/>
</g>
<g style="fill:rgb(15.289307%,31.369019%,64.709473%);fill-opacity:0.302;">
  <use xlink:href="#glyph0-4" x="291.758006" y="131.447105"/>
</g>
<g style="fill:rgb(15.289307%,31.369019%,64.709473%);fill-opacity:0.502;">
  <use xlink:href="#glyph0-6" x="222.045089" y="301.313208"/>
</g>
<g style="fill:rgb(15.289307%,31.369019%,64.709473%);fill-opacity:0.502;">
  <use xlink:href="#glyph0-7" x="245.562955" y="244.374222"/>
</g>
<g style="fill:rgb(15.289307%,31.369019%,64.709473%);fill-opacity:0.502;">
  <use xlink:href="#glyph0-6" x="268.071603" y="189.87865"/>
</g>
<g style="fill:rgb(15.289307%,31.369019%,64.709473%);fill-opacity:0.502;">
  <use xlink:href="#glyph0-4" x="291.589469" y="132.939665"/>
</g>
<g style="fill:rgb(100%,100%,100%);fill-opacity:1;">
  <use xlink:href="#glyph0-6" x="221.876552" y="302.805794"/>
</g>
<g style="fill:rgb(100%,100%,100%);fill-opacity:1;">
  <use xlink:href="#glyph0-7" x="245.394418" y="245.866809"/>
</g>
<g style="fill:rgb(100%,100%,100%);fill-opacity:1;">
  <use xlink:href="#glyph0-6" x="267.903065" y="191.371237"/>
</g>
<g style="fill:rgb(100%,100%,100%);fill-opacity:1;">
  <use xlink:href="#glyph0-4" x="291.420931" y="134.432251"/>
</g>
</g>
</svg>
