<?xml version="1.0" encoding="UTF-8"?>
<svg xmlns="http://www.w3.org/2000/svg" xmlns:xlink="http://www.w3.org/1999/xlink" width="375pt" height="374.999991pt" viewBox="0 0 375 374.999991" version="1.2">
<g id="surface1">
<path style=" stroke:none;fill-rule:nonzero;fill:rgb(94.509888%,73.728943%,9.799194%);fill-opacity:1;" d="M 330.59375 9.867188 C 330.59375 10.191406 330.558594 10.511719 330.496094 10.832031 C 330.433594 11.148438 330.339844 11.457031 330.214844 11.757812 C 330.09375 12.054688 329.941406 12.339844 329.761719 12.609375 C 329.582031 12.878906 329.375 13.128906 329.148438 13.359375 C 328.917969 13.585938 328.667969 13.792969 328.398438 13.972656 C 328.128906 14.152344 327.84375 14.304688 327.546875 14.425781 C 327.246094 14.550781 326.9375 14.644531 326.621094 14.707031 C 326.300781 14.769531 325.980469 14.800781 325.65625 14.800781 C 325.332031 14.800781 325.011719 14.769531 324.695312 14.707031 C 324.378906 14.644531 324.070312 14.550781 323.769531 14.425781 C 323.46875 14.304688 323.1875 14.152344 322.917969 13.972656 C 322.648438 13.792969 322.398438 13.585938 322.167969 13.359375 C 321.941406 13.128906 321.734375 12.878906 321.554688 12.609375 C 321.375 12.339844 321.222656 12.054688 321.097656 11.757812 C 320.976562 11.457031 320.882812 11.148438 320.820312 10.832031 C 320.753906 10.511719 320.722656 10.191406 320.722656 9.867188 C 320.722656 9.542969 320.753906 9.222656 320.820312 8.90625 C 320.882812 8.589844 320.976562 8.28125 321.097656 7.980469 C 321.222656 7.679688 321.375 7.398438 321.554688 7.128906 C 321.734375 6.859375 321.941406 6.609375 322.167969 6.378906 C 322.398438 6.148438 322.648438 5.945312 322.917969 5.765625 C 323.1875 5.585938 323.46875 5.433594 323.769531 5.308594 C 324.070312 5.1875 324.378906 5.09375 324.695312 5.027344 C 325.011719 4.964844 325.332031 4.933594 325.65625 4.933594 C 325.980469 4.933594 326.300781 4.964844 326.621094 5.027344 C 326.9375 5.09375 327.246094 5.1875 327.546875 5.308594 C 327.84375 5.433594 328.128906 5.585938 328.398438 5.765625 C 328.667969 5.945312 328.917969 6.148438 329.148438 6.378906 C 329.375 6.609375 329.582031 6.859375 329.761719 7.128906 C 329.941406 7.398438 330.09375 7.679688 330.214844 7.980469 C 330.339844 8.28125 330.433594 8.589844 330.496094 8.90625 C 330.558594 9.222656 330.59375 9.542969 330.59375 9.867188 Z M 330.59375 9.867188 "/>
<path style=" stroke:none;fill-rule:nonzero;fill:rgb(97.648621%,85.879517%,82.348633%);fill-opacity:1;" d="M 375 187.5 C 375 190.570312 374.925781 193.636719 374.773438 196.699219 C 374.625 199.765625 374.398438 202.824219 374.097656 205.878906 C 373.796875 208.933594 373.421875 211.976562 372.96875 215.011719 C 372.519531 218.046875 371.996094 221.070312 371.398438 224.078125 C 370.796875 227.089844 370.125 230.082031 369.382812 233.058594 C 368.636719 236.035156 367.816406 238.992188 366.925781 241.929688 C 366.035156 244.863281 365.074219 247.777344 364.039062 250.667969 C 363.003906 253.554688 361.902344 256.417969 360.726562 259.253906 C 359.554688 262.089844 358.308594 264.894531 356.996094 267.667969 C 355.6875 270.441406 354.308594 273.179688 352.859375 275.886719 C 351.414062 278.59375 349.902344 281.261719 348.324219 283.894531 C 346.746094 286.527344 345.105469 289.117188 343.402344 291.667969 C 341.695312 294.222656 339.929688 296.730469 338.101562 299.195312 C 336.273438 301.660156 334.386719 304.078125 332.441406 306.449219 C 330.492188 308.820312 328.488281 311.144531 326.429688 313.417969 C 324.367188 315.691406 322.253906 317.914062 320.082031 320.082031 C 317.914062 322.253906 315.691406 324.367188 313.417969 326.429688 C 311.144531 328.488281 308.820312 330.492188 306.449219 332.441406 C 304.078125 334.386719 301.660156 336.273438 299.195312 338.101562 C 296.730469 339.929688 294.222656 341.695312 291.667969 343.402344 C 289.117188 345.105469 286.527344 346.746094 283.894531 348.324219 C 281.261719 349.902344 278.59375 351.414062 275.886719 352.859375 C 273.179688 354.308594 270.441406 355.6875 267.667969 356.996094 C 264.894531 358.308594 262.089844 359.554688 259.253906 360.726562 C 256.417969 361.902344 253.554688 363.003906 250.667969 364.039062 C 247.777344 365.074219 244.863281 366.035156 241.929688 366.925781 C 238.992188 367.816406 236.035156 368.636719 233.058594 369.378906 C 230.082031 370.125 227.089844 370.796875 224.078125 371.398438 C 221.070312 371.996094 218.046875 372.519531 215.011719 372.96875 C 211.976562 373.421875 208.933594 373.796875 205.878906 374.097656 C 202.824219 374.398438 199.765625 374.625 196.699219 374.773438 C 193.636719 374.925781 190.570312 375 187.5 375 C 184.429688 375 181.363281 374.925781 178.300781 374.773438 C 175.234375 374.625 172.175781 374.398438 169.121094 374.097656 C 166.066406 373.796875 163.023438 373.421875 159.988281 372.96875 C 156.953125 372.519531 153.929688 371.996094 150.921875 371.398438 C 147.910156 370.796875 144.917969 370.125 141.941406 369.382812 C 138.964844 368.636719 136.007812 367.816406 133.070312 366.925781 C 130.136719 366.035156 127.222656 365.074219 124.332031 364.039062 C 121.445312 363.003906 118.582031 361.902344 115.746094 360.726562 C 112.910156 359.554688 110.105469 358.308594 107.332031 356.996094 C 104.558594 355.6875 101.820312 354.308594 99.113281 352.859375 C 96.40625 351.414062 93.738281 349.902344 91.105469 348.324219 C 88.472656 346.746094 85.882812 345.105469 83.332031 343.402344 C 80.777344 341.695312 78.269531 339.929688 75.804688 338.101562 C 73.339844 336.273438 70.921875 334.386719 68.550781 332.441406 C 66.179688 330.492188 63.855469 328.488281 61.582031 326.429688 C 59.308594 324.367188 57.085938 322.253906 54.917969 320.082031 C 52.746094 317.914062 50.632812 315.691406 48.570312 313.417969 C 46.511719 311.144531 44.507812 308.820312 42.5625 306.449219 C 40.613281 304.078125 38.726562 301.660156 36.898438 299.195312 C 35.070312 296.730469 33.304688 294.222656 31.597656 291.667969 C 29.894531 289.117188 28.253906 286.527344 26.675781 283.894531 C 25.097656 281.261719 23.585938 278.59375 22.140625 275.886719 C 20.691406 273.179688 19.3125 270.441406 18.003906 267.667969 C 16.691406 264.894531 15.445312 262.089844 14.273438 259.253906 C 13.097656 256.417969 11.996094 253.554688 10.960938 250.667969 C 9.925781 247.777344 8.964844 244.863281 8.074219 241.929688 C 7.183594 238.992188 6.363281 236.035156 5.621094 233.058594 C 4.875 230.082031 4.203125 227.089844 3.601562 224.078125 C 3.003906 221.070312 2.480469 218.046875 2.03125 215.011719 C 1.578125 211.976562 1.203125 208.933594 0.902344 205.878906 C 0.601562 202.824219 0.375 199.765625 0.226562 196.699219 C 0.0742188 193.636719 0 190.570312 0 187.5 C 0 184.429688 0.0742188 181.363281 0.226562 178.300781 C 0.375 175.234375 0.601562 172.175781 0.902344 169.121094 C 1.203125 166.066406 1.578125 163.023438 2.03125 159.988281 C 2.480469 156.953125 3.003906 153.929688 3.601562 150.921875 C 4.203125 147.910156 4.875 144.917969 5.621094 141.941406 C 6.363281 138.964844 7.183594 136.007812 8.074219 133.070312 C 8.964844 130.136719 9.925781 127.222656 10.960938 124.332031 C 11.996094 121.445312 13.097656 118.582031 14.273438 115.746094 C 15.445312 112.910156 16.691406 110.105469 18.003906 107.332031 C 19.3125 104.558594 20.691406 101.820312 22.140625 99.113281 C 23.585938 96.40625 25.097656 93.738281 26.675781 91.105469 C 28.253906 88.472656 29.894531 85.882812 31.597656 83.332031 C 33.304688 80.777344 35.070312 78.269531 36.898438 75.804688 C 38.726562 73.339844 40.613281 70.921875 42.5625 68.550781 C 44.507812 66.179688 46.511719 63.855469 48.570312 61.582031 C 50.632812 59.308594 52.746094 57.085938 54.917969 54.917969 C 57.085938 52.746094 59.308594 50.632812 61.582031 48.570312 C 63.855469 46.511719 66.179688 44.507812 68.550781 42.5625 C 70.921875 40.613281 73.339844 38.726562 75.804688 36.898438 C 78.269531 35.070312 80.777344 33.304688 83.332031 31.597656 C 85.882812 29.894531 88.472656 28.253906 91.105469 26.675781 C 93.738281 25.097656 96.40625 23.585938 99.113281 22.140625 C 101.820312 20.691406 104.558594 19.3125 107.332031 18.003906 C 110.105469 16.691406 112.910156 15.445312 115.746094 14.273438 C 118.582031 13.097656 121.445312 11.996094 124.332031 10.960938 C 127.222656 9.925781 130.136719 8.964844 133.070312 8.074219 C 136.007812 7.183594 138.964844 6.363281 141.941406 5.621094 C 144.917969 4.875 147.910156 4.203125 150.921875 3.601562 C 153.929688 3.003906 156.953125 2.480469 159.988281 2.03125 C 163.023438 1.578125 166.066406 1.203125 169.121094 0.902344 C 172.175781 0.601562 175.234375 0.375 178.300781 0.226562 C 181.363281 0.0742188 184.429688 0 187.5 0 C 190.570312 0 193.636719 0.0742188 196.699219 0.226562 C 199.765625 0.375 202.824219 0.601562 205.878906 0.902344 C 208.933594 1.203125 211.976562 1.578125 215.011719 2.03125 C 218.046875 2.480469 221.070312 3.003906 224.078125 3.601562 C 227.089844 4.203125 230.082031 4.875 233.058594 5.621094 C 236.035156 6.363281 238.992188 7.183594 241.929688 8.074219 C 244.863281 8.964844 247.777344 9.925781 250.667969 10.960938 C 253.554688 11.996094 256.417969 13.097656 259.253906 14.273438 C 262.089844 15.445312 264.894531 16.691406 267.667969 18.003906 C 270.441406 19.3125 273.179688 20.691406 275.886719 22.140625 C 278.59375 23.585938 281.261719 25.097656 283.894531 26.675781 C 286.527344 28.253906 289.117188 29.894531 291.667969 31.597656 C 294.222656 33.304688 296.730469 35.070312 299.195312 36.898438 C 301.660156 38.726562 304.078125 40.613281 306.449219 42.5625 C 308.820312 44.507812 311.144531 46.511719 313.417969 48.570312 C 315.691406 50.632812 317.914062 52.746094 320.082031 54.917969 C 322.253906 57.085938 324.367188 59.308594 326.429688 61.582031 C 328.488281 63.855469 330.492188 66.179688 332.441406 68.550781 C 334.386719 70.921875 336.273438 73.339844 338.101562 75.804688 C 339.929688 78.269531 341.695312 80.777344 343.402344 83.332031 C 345.105469 85.882812 346.746094 88.472656 348.324219 91.105469 C 349.902344 93.738281 351.414062 96.40625 352.859375 99.113281 C 354.308594 101.820312 355.6875 104.558594 356.996094 107.332031 C 358.308594 110.105469 359.554688 112.910156 360.726562 115.746094 C 361.902344 118.582031 363.003906 121.445312 364.039062 124.332031 C 365.074219 127.222656 366.035156 130.136719 366.925781 133.070312 C 367.816406 136.007812 368.636719 138.964844 369.378906 141.941406 C 370.125 144.917969 370.796875 147.910156 371.398438 150.921875 C 371.996094 153.929688 372.519531 156.953125 372.96875 159.988281 C 373.421875 163.023438 373.796875 166.066406 374.097656 169.121094 C 374.398438 172.175781 374.625 175.234375 374.773438 178.300781 C 374.925781 181.363281 375 184.429688 375 187.5 Z M 375 187.5 "/>
<path style=" stroke:none;fill-rule:nonzero;fill:rgb(94.509888%,73.728943%,9.799194%);fill-opacity:1;" d="M 375 19.738281 C 375 20.382812 374.96875 21.027344 374.90625 21.671875 C 374.839844 22.316406 374.746094 22.953125 374.621094 23.585938 C 374.496094 24.222656 374.335938 24.847656 374.148438 25.464844 C 373.960938 26.085938 373.746094 26.691406 373.496094 27.289062 C 373.25 27.886719 372.972656 28.46875 372.667969 29.039062 C 372.363281 29.609375 372.03125 30.164062 371.671875 30.703125 C 371.316406 31.238281 370.929688 31.757812 370.519531 32.257812 C 370.109375 32.757812 369.675781 33.234375 369.21875 33.691406 C 368.761719 34.148438 368.285156 34.582031 367.785156 34.992188 C 367.285156 35.402344 366.765625 35.789062 366.226562 36.148438 C 365.691406 36.507812 365.136719 36.839844 364.566406 37.144531 C 363.996094 37.449219 363.414062 37.722656 362.816406 37.972656 C 362.21875 38.21875 361.609375 38.4375 360.992188 38.625 C 360.375 38.8125 359.746094 38.96875 359.113281 39.09375 C 358.480469 39.21875 357.839844 39.316406 357.199219 39.378906 C 356.554688 39.441406 355.910156 39.472656 355.261719 39.472656 C 354.617188 39.472656 353.972656 39.441406 353.328125 39.378906 C 352.683594 39.316406 352.046875 39.21875 351.414062 39.09375 C 350.777344 38.96875 350.152344 38.8125 349.535156 38.625 C 348.914062 38.4375 348.308594 38.21875 347.710938 37.972656 C 347.113281 37.722656 346.53125 37.449219 345.960938 37.144531 C 345.390625 36.839844 344.835938 36.507812 344.296875 36.148438 C 343.761719 35.789062 343.242188 35.402344 342.742188 34.992188 C 342.242188 34.582031 341.765625 34.148438 341.308594 33.691406 C 340.851562 33.234375 340.417969 32.757812 340.007812 32.257812 C 339.597656 31.757812 339.210938 31.238281 338.851562 30.703125 C 338.492188 30.164062 338.160156 29.609375 337.855469 29.039062 C 337.550781 28.46875 337.277344 27.886719 337.027344 27.289062 C 336.78125 26.691406 336.5625 26.085938 336.375 25.464844 C 336.1875 24.847656 336.03125 24.222656 335.90625 23.585938 C 335.78125 22.953125 335.683594 22.316406 335.621094 21.671875 C 335.558594 21.027344 335.527344 20.382812 335.527344 19.738281 C 335.527344 19.089844 335.558594 18.445312 335.621094 17.800781 C 335.683594 17.160156 335.78125 16.519531 335.90625 15.886719 C 336.03125 15.253906 336.1875 14.625 336.375 14.007812 C 336.5625 13.390625 336.78125 12.78125 337.027344 12.183594 C 337.277344 11.585938 337.550781 11.003906 337.855469 10.433594 C 338.160156 9.863281 338.492188 9.308594 338.851562 8.773438 C 339.210938 8.234375 339.597656 7.714844 340.007812 7.214844 C 340.417969 6.714844 340.851562 6.238281 341.308594 5.78125 C 341.765625 5.324219 342.242188 4.890625 342.742188 4.480469 C 343.242188 4.070312 343.761719 3.683594 344.296875 3.328125 C 344.835938 2.96875 345.390625 2.636719 345.960938 2.332031 C 346.53125 2.027344 347.113281 1.75 347.710938 1.503906 C 348.308594 1.253906 348.914062 1.039062 349.535156 0.851562 C 350.152344 0.664062 350.777344 0.503906 351.414062 0.378906 C 352.046875 0.253906 352.683594 0.160156 353.328125 0.09375 C 353.972656 0.03125 354.617188 0 355.261719 0 C 355.910156 0 356.554688 0.03125 357.199219 0.09375 C 357.839844 0.160156 358.480469 0.253906 359.113281 0.378906 C 359.746094 0.503906 360.375 0.664062 360.992188 0.851562 C 361.609375 1.039062 362.21875 1.253906 362.816406 1.503906 C 363.414062 1.75 363.996094 2.027344 364.566406 2.332031 C 365.136719 2.636719 365.691406 2.96875 366.226562 3.328125 C 366.765625 3.683594 367.285156 4.070312 367.785156 4.480469 C 368.285156 4.890625 368.761719 5.324219 369.21875 5.78125 C 369.675781 6.238281 370.109375 6.714844 370.519531 7.214844 C 370.929688 7.714844 371.316406 8.234375 371.671875 8.773438 C 372.03125 9.308594 372.363281 9.863281 372.667969 10.433594 C 372.972656 11.003906 373.25 11.585938 373.496094 12.183594 C 373.746094 12.78125 373.960938 13.390625 374.148438 14.007812 C 374.335938 14.625 374.496094 15.253906 374.621094 15.886719 C 374.746094 16.519531 374.839844 17.160156 374.90625 17.800781 C 374.96875 18.445312 375 19.089844 375 19.738281 Z M 375 19.738281 "/>
<path style=" stroke:none;fill-rule:nonzero;fill:rgb(93.328857%,24.308777%,32.939148%);fill-opacity:1;" d="M 19.738281 69.078125 C 19.738281 69.726562 19.671875 70.367188 19.546875 71.003906 C 19.421875 71.640625 19.234375 72.257812 18.984375 72.855469 C 18.738281 73.453125 18.433594 74.023438 18.074219 74.5625 C 17.714844 75.101562 17.304688 75.597656 16.847656 76.058594 C 16.386719 76.515625 15.890625 76.925781 15.351562 77.285156 C 14.8125 77.644531 14.242188 77.949219 13.644531 78.195312 C 13.046875 78.445312 12.429688 78.632812 11.792969 78.757812 C 11.15625 78.882812 10.515625 78.949219 9.867188 78.949219 C 9.21875 78.949219 8.578125 78.882812 7.941406 78.757812 C 7.308594 78.632812 6.691406 78.445312 6.09375 78.195312 C 5.492188 77.949219 4.925781 77.644531 4.386719 77.285156 C 3.847656 76.925781 3.347656 76.515625 2.890625 76.058594 C 2.433594 75.597656 2.023438 75.101562 1.664062 74.5625 C 1.304688 74.023438 1 73.453125 0.75 72.855469 C 0.503906 72.257812 0.316406 71.640625 0.191406 71.003906 C 0.0625 70.367188 0 69.726562 0 69.078125 C 0 68.429688 0.0625 67.789062 0.191406 67.152344 C 0.316406 66.519531 0.503906 65.902344 0.75 65.300781 C 1 64.703125 1.304688 64.136719 1.664062 63.597656 C 2.023438 63.058594 2.433594 62.558594 2.890625 62.101562 C 3.347656 61.644531 3.847656 61.234375 4.386719 60.875 C 4.925781 60.511719 5.492188 60.210938 6.09375 59.960938 C 6.691406 59.714844 7.308594 59.527344 7.941406 59.398438 C 8.578125 59.273438 9.21875 59.210938 9.867188 59.210938 C 10.515625 59.210938 11.15625 59.273438 11.792969 59.398438 C 12.429688 59.527344 13.046875 59.714844 13.644531 59.960938 C 14.242188 60.210938 14.8125 60.511719 15.351562 60.875 C 15.890625 61.234375 16.386719 61.644531 16.847656 62.101562 C 17.304688 62.558594 17.714844 63.058594 18.074219 63.597656 C 18.433594 64.136719 18.738281 64.703125 18.984375 65.300781 C 19.234375 65.902344 19.421875 66.519531 19.546875 67.152344 C 19.671875 67.789062 19.738281 68.429688 19.738281 69.078125 Z M 19.738281 69.078125 "/>
<path style=" stroke:none;fill-rule:nonzero;fill:rgb(98.429871%,80.389404%,34.899902%);fill-opacity:1;" d="M 335.527344 320.722656 C 335.527344 321.371094 335.464844 322.011719 335.335938 322.648438 C 335.210938 323.285156 335.023438 323.902344 334.773438 324.5 C 334.527344 325.097656 334.222656 325.667969 333.863281 326.207031 C 333.503906 326.746094 333.09375 327.242188 332.636719 327.703125 C 332.175781 328.160156 331.679688 328.570312 331.140625 328.929688 C 330.601562 329.289062 330.03125 329.59375 329.433594 329.839844 C 328.835938 330.089844 328.21875 330.277344 327.582031 330.402344 C 326.949219 330.527344 326.304688 330.59375 325.65625 330.59375 C 325.011719 330.59375 324.367188 330.527344 323.734375 330.402344 C 323.097656 330.277344 322.480469 330.089844 321.882812 329.839844 C 321.28125 329.59375 320.714844 329.289062 320.175781 328.929688 C 319.636719 328.570312 319.136719 328.160156 318.679688 327.703125 C 318.222656 327.242188 317.8125 326.746094 317.453125 326.207031 C 317.09375 325.667969 316.789062 325.097656 316.539062 324.5 C 316.292969 323.902344 316.105469 323.285156 315.980469 322.648438 C 315.851562 322.011719 315.789062 321.371094 315.789062 320.722656 C 315.789062 320.074219 315.851562 319.433594 315.980469 318.796875 C 316.105469 318.164062 316.292969 317.546875 316.539062 316.945312 C 316.789062 316.347656 317.09375 315.78125 317.453125 315.242188 C 317.8125 314.703125 318.222656 314.203125 318.679688 313.746094 C 319.136719 313.289062 319.636719 312.878906 320.175781 312.519531 C 320.714844 312.160156 321.28125 311.855469 321.882812 311.605469 C 322.480469 311.359375 323.097656 311.171875 323.734375 311.042969 C 324.367188 310.917969 325.011719 310.855469 325.65625 310.855469 C 326.304688 310.855469 326.949219 310.917969 327.582031 311.042969 C 328.21875 311.171875 328.835938 311.359375 329.433594 311.605469 C 330.03125 311.855469 330.601562 312.160156 331.140625 312.519531 C 331.679688 312.878906 332.175781 313.289062 332.636719 313.746094 C 333.09375 314.203125 333.503906 314.703125 333.863281 315.242188 C 334.222656 315.78125 334.527344 316.347656 334.773438 316.945312 C 335.023438 317.546875 335.210938 318.164062 335.335938 318.796875 C 335.464844 319.433594 335.527344 320.074219 335.527344 320.722656 Z M 335.527344 320.722656 "/>
<path style=" stroke:none;fill-rule:nonzero;fill:rgb(98.429871%,80.389404%,34.899902%);fill-opacity:1;" d="M 44.40625 325.65625 C 44.40625 326.304688 44.375 326.949219 44.3125 327.59375 C 44.25 328.234375 44.15625 328.875 44.027344 329.507812 C 43.902344 330.140625 43.746094 330.769531 43.558594 331.386719 C 43.371094 332.003906 43.152344 332.613281 42.90625 333.210938 C 42.65625 333.808594 42.382812 334.390625 42.078125 334.960938 C 41.773438 335.53125 41.441406 336.085938 41.082031 336.625 C 40.722656 337.160156 40.339844 337.679688 39.929688 338.179688 C 39.519531 338.679688 39.085938 339.15625 38.628906 339.613281 C 38.171875 340.070312 37.691406 340.503906 37.191406 340.914062 C 36.691406 341.324219 36.171875 341.710938 35.636719 342.070312 C 35.097656 342.425781 34.546875 342.757812 33.976562 343.0625 C 33.40625 343.367188 32.820312 343.644531 32.222656 343.890625 C 31.625 344.140625 31.019531 344.355469 30.398438 344.542969 C 29.78125 344.734375 29.15625 344.890625 28.523438 345.015625 C 27.886719 345.140625 27.25 345.238281 26.605469 345.300781 C 25.960938 345.363281 25.316406 345.394531 24.671875 345.394531 C 24.023438 345.394531 23.378906 345.363281 22.738281 345.300781 C 22.09375 345.238281 21.453125 345.140625 20.820312 345.015625 C 20.1875 344.890625 19.558594 344.734375 18.941406 344.542969 C 18.324219 344.355469 17.714844 344.140625 17.117188 343.890625 C 16.519531 343.644531 15.9375 343.367188 15.367188 343.0625 C 14.796875 342.757812 14.242188 342.425781 13.707031 342.070312 C 13.167969 341.710938 12.648438 341.324219 12.148438 340.914062 C 11.652344 340.503906 11.171875 340.070312 10.714844 339.613281 C 10.257812 339.15625 9.824219 338.679688 9.414062 338.179688 C 9.003906 337.679688 8.621094 337.160156 8.261719 336.625 C 7.902344 336.085938 7.570312 335.53125 7.265625 334.960938 C 6.960938 334.390625 6.683594 333.808594 6.4375 333.210938 C 6.1875 332.613281 5.972656 332.003906 5.785156 331.386719 C 5.597656 330.769531 5.441406 330.140625 5.3125 329.507812 C 5.1875 328.875 5.09375 328.234375 5.027344 327.59375 C 4.964844 326.949219 4.933594 326.304688 4.933594 325.65625 C 4.933594 325.011719 4.964844 324.367188 5.027344 323.722656 C 5.09375 323.078125 5.1875 322.441406 5.3125 321.808594 C 5.441406 321.171875 5.597656 320.546875 5.785156 319.929688 C 5.972656 319.308594 6.1875 318.703125 6.4375 318.105469 C 6.683594 317.507812 6.960938 316.925781 7.265625 316.355469 C 7.570312 315.785156 7.902344 315.230469 8.261719 314.691406 C 8.621094 314.15625 9.003906 313.636719 9.414062 313.136719 C 9.824219 312.636719 10.257812 312.160156 10.714844 311.703125 C 11.171875 311.246094 11.652344 310.8125 12.148438 310.402344 C 12.648438 309.992188 13.167969 309.605469 13.707031 309.246094 C 14.242188 308.886719 14.796875 308.554688 15.367188 308.25 C 15.9375 307.945312 16.519531 307.671875 17.117188 307.421875 C 17.714844 307.175781 18.324219 306.957031 18.941406 306.769531 C 19.558594 306.582031 20.1875 306.425781 20.820312 306.300781 C 21.453125 306.175781 22.09375 306.078125 22.738281 306.015625 C 23.378906 305.953125 24.023438 305.921875 24.671875 305.921875 C 25.316406 305.921875 25.960938 305.953125 26.605469 306.015625 C 27.25 306.078125 27.886719 306.175781 28.523438 306.300781 C 29.15625 306.425781 29.78125 306.582031 30.398438 306.769531 C 31.019531 306.957031 31.625 307.175781 32.222656 307.421875 C 32.820312 307.671875 33.40625 307.945312 33.976562 308.25 C 34.546875 308.554688 35.097656 308.886719 35.636719 309.246094 C 36.171875 309.605469 36.691406 309.992188 37.191406 310.402344 C 37.691406 310.8125 38.171875 311.246094 38.628906 311.703125 C 39.085938 312.160156 39.519531 312.636719 39.929688 313.136719 C 40.339844 313.636719 40.722656 314.15625 41.082031 314.691406 C 41.441406 315.230469 41.773438 315.785156 42.078125 316.355469 C 42.382812 316.925781 42.65625 317.507812 42.90625 318.105469 C 43.152344 318.703125 43.371094 319.308594 43.558594 319.929688 C 43.746094 320.546875 43.902344 321.171875 44.027344 321.808594 C 44.15625 322.441406 44.25 323.078125 44.3125 323.722656 C 44.375 324.367188 44.40625 325.011719 44.40625 325.65625 Z M 44.40625 325.65625 "/>
<path style=" stroke:none;fill-rule:nonzero;fill:rgb(93.328857%,24.308777%,32.939148%);fill-opacity:1;" d="M 69.078125 350.328125 C 69.078125 350.976562 69.015625 351.617188 68.890625 352.253906 C 68.761719 352.890625 68.574219 353.507812 68.328125 354.105469 C 68.078125 354.703125 67.777344 355.273438 67.414062 355.8125 C 67.054688 356.351562 66.648438 356.847656 66.1875 357.308594 C 65.730469 357.765625 65.230469 358.175781 64.691406 358.535156 C 64.15625 358.894531 63.585938 359.199219 62.988281 359.445312 C 62.386719 359.695312 61.769531 359.882812 61.136719 360.007812 C 60.5 360.132812 59.859375 360.199219 59.210938 360.199219 C 58.5625 360.199219 57.921875 360.132812 57.285156 360.007812 C 56.648438 359.882812 56.03125 359.695312 55.433594 359.445312 C 54.835938 359.199219 54.265625 358.894531 53.726562 358.535156 C 53.1875 358.175781 52.691406 357.765625 52.234375 357.308594 C 51.773438 356.847656 51.363281 356.351562 51.003906 355.8125 C 50.644531 355.273438 50.339844 354.703125 50.09375 354.105469 C 49.84375 353.507812 49.65625 352.890625 49.53125 352.253906 C 49.40625 351.617188 49.34375 350.976562 49.34375 350.328125 C 49.34375 349.679688 49.40625 349.039062 49.53125 348.402344 C 49.65625 347.769531 49.84375 347.152344 50.09375 346.550781 C 50.339844 345.953125 50.644531 345.386719 51.003906 344.847656 C 51.363281 344.308594 51.773438 343.808594 52.234375 343.351562 C 52.691406 342.894531 53.1875 342.484375 53.726562 342.125 C 54.265625 341.761719 54.835938 341.460938 55.433594 341.210938 C 56.03125 340.964844 56.648438 340.777344 57.285156 340.648438 C 57.921875 340.523438 58.5625 340.460938 59.210938 340.460938 C 59.859375 340.460938 60.5 340.523438 61.136719 340.648438 C 61.769531 340.777344 62.386719 340.964844 62.988281 341.210938 C 63.585938 341.460938 64.15625 341.761719 64.691406 342.125 C 65.230469 342.484375 65.730469 342.894531 66.1875 343.351562 C 66.648438 343.808594 67.054688 344.308594 67.414062 344.847656 C 67.777344 345.386719 68.078125 345.953125 68.328125 346.550781 C 68.574219 347.152344 68.761719 347.769531 68.890625 348.402344 C 69.015625 349.039062 69.078125 349.679688 69.078125 350.328125 Z M 69.078125 350.328125 "/>
<path style=" stroke:none;fill-rule:nonzero;fill:rgb(100%,100%,100%);fill-opacity:1;" d="M 281.25 328.125 C 281.25 328.933594 281.171875 329.738281 281.011719 330.53125 C 280.855469 331.324219 280.621094 332.097656 280.3125 332.84375 C 280 333.59375 279.621094 334.304688 279.171875 334.976562 C 278.722656 335.652344 278.210938 336.273438 277.636719 336.847656 C 277.0625 337.421875 276.441406 337.929688 275.769531 338.382812 C 275.09375 338.832031 274.382812 339.210938 273.636719 339.519531 C 272.886719 339.832031 272.117188 340.066406 271.320312 340.222656 C 270.527344 340.382812 269.722656 340.460938 268.914062 340.460938 C 268.105469 340.460938 267.300781 340.382812 266.507812 340.222656 C 265.714844 340.066406 264.941406 339.832031 264.195312 339.519531 C 263.445312 339.210938 262.734375 338.832031 262.0625 338.382812 C 261.386719 337.929688 260.765625 337.421875 260.191406 336.847656 C 259.621094 336.273438 259.109375 335.652344 258.65625 334.976562 C 258.207031 334.304688 257.828125 333.59375 257.519531 332.84375 C 257.207031 332.097656 256.972656 331.324219 256.816406 330.53125 C 256.65625 329.738281 256.578125 328.933594 256.578125 328.125 C 256.578125 327.316406 256.65625 326.511719 256.816406 325.71875 C 256.972656 324.925781 257.207031 324.152344 257.519531 323.40625 C 257.828125 322.65625 258.207031 321.945312 258.65625 321.273438 C 259.109375 320.597656 259.621094 319.976562 260.191406 319.402344 C 260.765625 318.828125 261.386719 318.316406 262.0625 317.867188 C 262.734375 317.417969 263.445312 317.039062 264.195312 316.726562 C 264.941406 316.417969 265.714844 316.183594 266.507812 316.027344 C 267.300781 315.867188 268.105469 315.789062 268.914062 315.789062 C 269.722656 315.789062 270.527344 315.867188 271.320312 316.027344 C 272.117188 316.183594 272.886719 316.417969 273.636719 316.726562 C 274.382812 317.039062 275.09375 317.417969 275.769531 317.867188 C 276.441406 318.316406 277.0625 318.828125 277.636719 319.402344 C 278.210938 319.976562 278.722656 320.597656 279.171875 321.273438 C 279.621094 321.945312 280 322.65625 280.3125 323.40625 C 280.621094 324.152344 280.855469 324.925781 281.011719 325.71875 C 281.171875 326.511719 281.25 327.316406 281.25 328.125 Z M 281.25 328.125 "/>
<path style=" stroke:none;fill-rule:nonzero;fill:rgb(100%,100%,100%);fill-opacity:1;" d="M 24.671875 177.632812 C 24.671875 177.957031 24.640625 178.277344 24.578125 178.59375 C 24.511719 178.910156 24.417969 179.21875 24.296875 179.519531 C 24.171875 179.820312 24.019531 180.101562 23.839844 180.371094 C 23.660156 180.640625 23.453125 180.890625 23.226562 181.121094 C 22.996094 181.351562 22.746094 181.554688 22.476562 181.734375 C 22.207031 181.914062 21.925781 182.066406 21.625 182.191406 C 21.324219 182.3125 21.015625 182.40625 20.699219 182.472656 C 20.382812 182.535156 20.0625 182.566406 19.738281 182.566406 C 19.414062 182.566406 19.09375 182.535156 18.773438 182.472656 C 18.457031 182.40625 18.148438 182.3125 17.847656 182.191406 C 17.550781 182.066406 17.265625 181.914062 16.996094 181.734375 C 16.726562 181.554688 16.476562 181.351562 16.246094 181.121094 C 16.019531 180.890625 15.8125 180.640625 15.632812 180.371094 C 15.453125 180.101562 15.300781 179.820312 15.179688 179.519531 C 15.054688 179.21875 14.960938 178.910156 14.898438 178.59375 C 14.835938 178.277344 14.800781 177.957031 14.800781 177.632812 C 14.800781 177.308594 14.835938 176.988281 14.898438 176.667969 C 14.960938 176.351562 15.054688 176.042969 15.179688 175.742188 C 15.300781 175.445312 15.453125 175.160156 15.632812 174.890625 C 15.8125 174.621094 16.019531 174.371094 16.246094 174.140625 C 16.476562 173.914062 16.726562 173.707031 16.996094 173.527344 C 17.265625 173.347656 17.550781 173.195312 17.847656 173.074219 C 18.148438 172.949219 18.457031 172.855469 18.773438 172.792969 C 19.09375 172.730469 19.414062 172.699219 19.738281 172.699219 C 20.0625 172.699219 20.382812 172.730469 20.699219 172.792969 C 21.015625 172.855469 21.324219 172.949219 21.625 173.074219 C 21.925781 173.195312 22.207031 173.347656 22.476562 173.527344 C 22.746094 173.707031 22.996094 173.914062 23.226562 174.140625 C 23.453125 174.371094 23.660156 174.621094 23.839844 174.890625 C 24.019531 175.160156 24.171875 175.445312 24.296875 175.742188 C 24.417969 176.042969 24.511719 176.351562 24.578125 176.667969 C 24.640625 176.988281 24.671875 177.308594 24.671875 177.632812 Z M 24.671875 177.632812 "/>
<path style=" stroke:none;fill-rule:nonzero;fill:rgb(94.509888%,73.728943%,9.799194%);fill-opacity:1;" d="M 370.066406 93.75 C 370.066406 94.074219 370.035156 94.394531 369.972656 94.710938 C 369.90625 95.03125 369.8125 95.339844 369.691406 95.636719 C 369.566406 95.9375 369.414062 96.222656 369.234375 96.492188 C 369.054688 96.761719 368.847656 97.011719 368.621094 97.238281 C 368.390625 97.46875 368.140625 97.671875 367.871094 97.851562 C 367.601562 98.03125 367.320312 98.183594 367.019531 98.308594 C 366.71875 98.433594 366.410156 98.527344 366.09375 98.589844 C 365.777344 98.652344 365.457031 98.683594 365.132812 98.683594 C 364.808594 98.683594 364.488281 98.652344 364.167969 98.589844 C 363.851562 98.527344 363.542969 98.433594 363.242188 98.308594 C 362.945312 98.183594 362.660156 98.03125 362.390625 97.851562 C 362.121094 97.671875 361.871094 97.46875 361.640625 97.238281 C 361.414062 97.011719 361.207031 96.761719 361.027344 96.492188 C 360.847656 96.222656 360.695312 95.9375 360.574219 95.636719 C 360.449219 95.339844 360.355469 95.03125 360.292969 94.710938 C 360.230469 94.394531 360.199219 94.074219 360.199219 93.75 C 360.199219 93.425781 360.230469 93.105469 360.292969 92.789062 C 360.355469 92.46875 360.449219 92.160156 360.574219 91.863281 C 360.695312 91.5625 360.847656 91.277344 361.027344 91.007812 C 361.207031 90.738281 361.414062 90.488281 361.640625 90.261719 C 361.871094 90.03125 362.121094 89.828125 362.390625 89.648438 C 362.660156 89.46875 362.945312 89.316406 363.242188 89.191406 C 363.542969 89.066406 363.851562 88.972656 364.167969 88.910156 C 364.488281 88.847656 364.808594 88.816406 365.132812 88.816406 C 365.457031 88.816406 365.777344 88.847656 366.09375 88.910156 C 366.410156 88.972656 366.71875 89.066406 367.019531 89.191406 C 367.320312 89.316406 367.601562 89.46875 367.871094 89.648438 C 368.140625 89.828125 368.390625 90.03125 368.621094 90.261719 C 368.847656 90.488281 369.054688 90.738281 369.234375 91.007812 C 369.414062 91.277344 369.566406 91.5625 369.691406 91.863281 C 369.8125 92.160156 369.90625 92.46875 369.972656 92.789062 C 370.035156 93.105469 370.066406 93.425781 370.066406 93.75 Z M 370.066406 93.75 "/>
<path style=" stroke:none;fill-rule:nonzero;fill:rgb(100%,100%,100%);fill-opacity:1;" d="M 345.394531 266.449219 C 345.394531 267.09375 345.332031 267.738281 345.207031 268.371094 C 345.078125 269.007812 344.890625 269.625 344.644531 270.222656 C 344.394531 270.824219 344.089844 271.390625 343.730469 271.929688 C 343.371094 272.46875 342.960938 272.96875 342.503906 273.425781 C 342.046875 273.882812 341.546875 274.292969 341.007812 274.652344 C 340.46875 275.011719 339.902344 275.316406 339.304688 275.566406 C 338.703125 275.8125 338.085938 276 337.453125 276.125 C 336.816406 276.253906 336.175781 276.316406 335.527344 276.316406 C 334.878906 276.316406 334.238281 276.253906 333.601562 276.125 C 332.964844 276 332.347656 275.8125 331.75 275.566406 C 331.152344 275.316406 330.582031 275.011719 330.042969 274.652344 C 329.503906 274.292969 329.007812 273.882812 328.546875 273.425781 C 328.089844 272.96875 327.679688 272.46875 327.320312 271.929688 C 326.960938 271.390625 326.65625 270.824219 326.410156 270.222656 C 326.160156 269.625 325.972656 269.007812 325.847656 268.371094 C 325.722656 267.738281 325.65625 267.09375 325.65625 266.449219 C 325.65625 265.800781 325.722656 265.15625 325.847656 264.523438 C 325.972656 263.886719 326.160156 263.269531 326.410156 262.671875 C 326.65625 262.070312 326.960938 261.503906 327.320312 260.964844 C 327.679688 260.425781 328.089844 259.925781 328.546875 259.46875 C 329.007812 259.011719 329.503906 258.601562 330.042969 258.242188 C 330.582031 257.882812 331.152344 257.578125 331.75 257.332031 C 332.347656 257.082031 332.964844 256.894531 333.601562 256.769531 C 334.238281 256.640625 334.878906 256.578125 335.527344 256.578125 C 336.175781 256.578125 336.816406 256.640625 337.453125 256.769531 C 338.085938 256.894531 338.703125 257.082031 339.304688 257.332031 C 339.902344 257.578125 340.46875 257.882812 341.007812 258.242188 C 341.546875 258.601562 342.046875 259.011719 342.503906 259.46875 C 342.960938 259.925781 343.371094 260.425781 343.730469 260.964844 C 344.089844 261.503906 344.394531 262.070312 344.644531 262.671875 C 344.890625 263.269531 345.078125 263.886719 345.207031 264.523438 C 345.332031 265.15625 345.394531 265.800781 345.394531 266.449219 Z M 345.394531 266.449219 "/>
<path style=" stroke:none;fill-rule:nonzero;fill:rgb(46.669006%,79.60968%,82.348633%);fill-opacity:1;" d="M 187.5 251.644531 C 108.550781 251.644531 49.34375 224.011719 49.34375 187.5 C 49.34375 150.988281 108.550781 123.355469 187.5 123.355469 C 266.449219 123.355469 325.65625 150.988281 325.65625 187.5 C 325.65625 224.011719 266.449219 251.644531 187.5 251.644531 Z M 187.5 142.597656 C 116.941406 142.597656 67.597656 166.28125 67.597656 187.5 C 67.597656 208.71875 116.941406 232.402344 187.5 232.402344 C 258.058594 232.402344 307.402344 208.71875 307.402344 187.5 C 307.402344 166.28125 258.058594 142.597656 187.5 142.597656 Z M 187.5 142.597656 "/>
<path style=" stroke:none;fill-rule:nonzero;fill:rgb(27.839661%,16.859436%,16.079712%);fill-opacity:1;" d="M 187.5 255.097656 C 106.578125 255.097656 45.886719 225.988281 45.886719 187.5 C 45.886719 149.011719 106.578125 119.902344 187.5 119.902344 C 268.421875 119.902344 329.113281 149.011719 329.113281 187.5 C 329.113281 225.988281 268.421875 255.097656 187.5 255.097656 Z M 187.5 126.808594 C 110.527344 126.808594 52.796875 152.960938 52.796875 187.5 C 52.796875 222.039062 110.527344 248.191406 187.5 248.191406 C 264.472656 248.191406 322.203125 222.039062 322.203125 187.5 C 322.203125 152.960938 264.472656 126.808594 187.5 126.808594 Z M 187.5 235.855469 C 113.980469 235.855469 64.144531 210.691406 64.144531 187.5 C 64.144531 164.308594 113.488281 139.144531 187.5 139.144531 C 261.511719 139.144531 310.855469 164.308594 310.855469 187.5 C 310.855469 210.691406 261.019531 235.855469 187.5 235.855469 Z M 187.5 146.050781 C 115.460938 146.050781 71.050781 170.230469 71.050781 187.5 C 71.050781 204.769531 115.460938 228.949219 187.5 228.949219 C 259.539062 228.949219 303.949219 204.769531 303.949219 187.5 C 303.949219 170.230469 259.539062 146.050781 187.5 146.050781 Z M 187.5 146.050781 "/>
<path style=" stroke:none;fill-rule:nonzero;fill:rgb(46.669006%,79.60968%,82.348633%);fill-opacity:1;" d="M 135.691406 311.84375 C 129.277344 311.84375 123.847656 310.363281 118.914062 307.402344 C 88.816406 289.636719 95.230469 225 134.210938 156.414062 C 161.347656 108.550781 197.863281 72.53125 227.46875 64.636719 C 238.324219 61.675781 248.191406 62.664062 256.085938 67.105469 C 286.183594 84.867188 279.769531 149.507812 240.789062 218.09375 C 213.652344 265.953125 177.136719 301.972656 147.53125 309.867188 C 143.585938 311.347656 139.636719 311.84375 135.691406 311.84375 Z M 239.308594 81.414062 C 237.335938 81.414062 234.867188 81.90625 231.90625 82.402344 C 207.730469 88.816406 174.671875 122.367188 150 165.296875 C 115.953125 225 110.527344 280.757812 127.796875 291.117188 C 131.25 293.09375 136.183594 293.585938 142.597656 292.105469 C 166.777344 285.691406 199.835938 252.136719 224.507812 209.210938 C 258.550781 149.507812 263.980469 93.75 246.710938 83.386719 C 244.738281 82.402344 242.269531 81.414062 239.308594 81.414062 Z M 239.308594 81.414062 "/>
<path style=" stroke:none;fill-rule:nonzero;fill:rgb(27.839661%,16.859436%,16.079712%);fill-opacity:1;" d="M 135.691406 315.296875 C 128.78125 315.296875 122.367188 313.816406 116.941406 310.363281 C 84.867188 291.613281 90.789062 224.507812 130.757812 154.441406 C 158.386719 105.59375 195.886719 69.078125 225.988281 61.183594 C 237.828125 58.222656 248.683594 59.210938 257.566406 64.144531 C 289.636719 82.894531 283.71875 150 243.75 220.066406 C 216.117188 268.914062 178.617188 305.425781 148.519531 313.324219 C 144.078125 314.800781 140.132812 315.296875 135.691406 315.296875 Z M 239.308594 66.613281 C 235.855469 66.613281 231.90625 67.105469 228.453125 68.09375 C 199.835938 75.492188 164.308594 111.019531 137.664062 157.894531 C 100.164062 223.519531 93.257812 287.664062 121.382812 304.441406 C 128.289062 308.386719 137.664062 309.375 147.53125 306.90625 C 176.152344 299.507812 211.675781 263.980469 238.324219 217.105469 C 275.824219 151.480469 283.222656 87.335938 254.605469 71.050781 C 249.671875 68.09375 244.738281 66.613281 239.308594 66.613281 Z M 135.691406 297.039062 C 132.238281 297.039062 129.277344 296.050781 126.316406 294.574219 C 104.605469 282.238281 114.472656 221.050781 147.039062 163.816406 C 172.203125 119.902344 205.757812 85.855469 230.921875 79.441406 C 237.828125 77.46875 243.75 77.960938 248.191406 80.425781 C 269.902344 92.761719 260.03125 153.949219 227.46875 211.183594 C 202.300781 255.097656 168.75 289.144531 143.585938 295.558594 C 141.117188 296.546875 138.15625 297.039062 135.691406 297.039062 Z M 239.308594 84.867188 C 237.335938 84.867188 235.363281 85.363281 232.894531 85.855469 C 209.210938 92.269531 177.136719 124.835938 152.960938 167.269531 C 117.925781 228.949219 115.460938 280.261719 129.769531 288.652344 C 132.730469 290.132812 136.675781 290.625 141.613281 289.144531 C 165.296875 282.730469 197.367188 250.164062 221.546875 207.730469 C 256.578125 146.050781 259.046875 94.738281 244.738281 86.347656 C 243.257812 85.363281 241.28125 84.867188 239.308594 84.867188 Z M 239.308594 84.867188 "/>
<path style=" stroke:none;fill-rule:nonzero;fill:rgb(46.669006%,79.60968%,82.348633%);fill-opacity:1;" d="M 239.308594 311.84375 C 235.363281 311.84375 231.414062 311.347656 227.46875 310.363281 C 198.355469 302.46875 161.84375 266.449219 134.210938 218.585938 C 95.230469 150 88.816406 85.363281 118.914062 67.597656 C 126.808594 63.15625 136.675781 62.171875 147.53125 65.132812 C 176.644531 73.027344 213.15625 109.046875 240.789062 156.90625 C 279.769531 225.492188 286.183594 290.132812 256.085938 307.894531 C 251.152344 310.363281 245.230469 311.84375 239.308594 311.84375 Z M 135.691406 81.414062 C 132.730469 81.414062 130.261719 81.90625 128.289062 83.386719 C 110.527344 93.75 116.449219 150 150.492188 209.210938 C 175.164062 252.136719 207.730469 285.691406 232.402344 292.105469 C 238.324219 293.585938 243.257812 293.585938 247.203125 291.117188 C 264.96875 280.757812 259.046875 224.507812 225 165.296875 C 200.328125 122.367188 167.761719 88.816406 143.09375 82.402344 C 140.132812 81.90625 138.15625 81.414062 135.691406 81.414062 Z M 135.691406 81.414062 "/>
<path style=" stroke:none;fill-rule:nonzero;fill:rgb(27.839661%,16.859436%,16.079712%);fill-opacity:1;" d="M 239.308594 315.296875 C 235.363281 315.296875 230.921875 314.800781 226.480469 313.324219 C 196.382812 305.425781 158.882812 268.421875 131.25 220.066406 C 91.28125 150 85.363281 82.894531 117.433594 64.144531 C 126.316406 59.210938 137.171875 57.730469 149.011719 61.183594 C 179.113281 69.078125 216.613281 106.085938 244.242188 154.441406 C 284.210938 224.507812 290.132812 291.613281 258.058594 310.363281 C 252.136719 313.816406 246.21875 315.296875 239.308594 315.296875 Z M 135.691406 66.613281 C 130.261719 66.613281 124.835938 68.09375 120.394531 70.558594 C 92.269531 86.84375 99.671875 151.480469 136.675781 216.613281 C 163.324219 263.488281 199.34375 299.011719 227.46875 306.414062 C 237.335938 308.882812 246.21875 308.386719 253.617188 303.949219 C 281.742188 287.664062 274.34375 223.027344 237.335938 157.402344 C 210.691406 110.527344 174.671875 75 146.546875 67.597656 C 143.09375 67.105469 139.144531 66.613281 135.691406 66.613281 Z M 239.308594 297.039062 C 236.84375 297.039062 234.375 296.546875 231.414062 296.050781 C 206.25 289.144531 172.699219 255.097656 147.53125 211.675781 C 114.96875 154.441406 105.097656 93.75 126.808594 80.921875 C 131.25 78.453125 137.171875 77.960938 144.078125 79.933594 C 169.242188 86.84375 202.796875 120.886719 227.960938 164.308594 C 260.527344 221.546875 270.394531 282.238281 248.683594 295.066406 C 245.722656 296.050781 242.761719 297.039062 239.308594 297.039062 Z M 135.691406 84.867188 C 133.222656 84.867188 131.25 85.363281 129.769531 86.347656 C 115.953125 94.738281 117.925781 146.050781 152.960938 207.730469 C 177.136719 250.164062 209.210938 282.730469 232.894531 289.144531 C 237.828125 290.625 242.269531 290.132812 244.738281 288.652344 C 258.550781 280.261719 256.578125 228.949219 221.546875 167.269531 C 197.367188 124.835938 165.789062 92.269531 142.105469 85.855469 C 139.636719 85.363281 137.664062 84.867188 135.691406 84.867188 Z M 135.691406 84.867188 "/>
<path style=" stroke:none;fill-rule:nonzero;fill:rgb(46.669006%,79.60968%,82.348633%);fill-opacity:1;" d="M 214.636719 187.5 C 214.636719 188.390625 214.59375 189.277344 214.507812 190.160156 C 214.421875 191.042969 214.289062 191.921875 214.117188 192.792969 C 213.941406 193.667969 213.726562 194.527344 213.46875 195.378906 C 213.210938 196.226562 212.914062 197.0625 212.574219 197.886719 C 212.230469 198.707031 211.851562 199.507812 211.433594 200.292969 C 211.015625 201.078125 210.558594 201.839844 210.066406 202.578125 C 209.570312 203.316406 209.042969 204.027344 208.476562 204.714844 C 207.914062 205.402344 207.316406 206.0625 206.691406 206.691406 C 206.0625 207.316406 205.402344 207.914062 204.714844 208.476562 C 204.027344 209.042969 203.316406 209.570312 202.578125 210.066406 C 201.839844 210.558594 201.078125 211.015625 200.292969 211.433594 C 199.507812 211.851562 198.707031 212.230469 197.886719 212.574219 C 197.0625 212.914062 196.226562 213.210938 195.378906 213.46875 C 194.527344 213.726562 193.667969 213.941406 192.792969 214.117188 C 191.921875 214.289062 191.042969 214.421875 190.160156 214.507812 C 189.277344 214.59375 188.390625 214.636719 187.5 214.636719 C 186.609375 214.636719 185.722656 214.59375 184.839844 214.507812 C 183.957031 214.421875 183.078125 214.289062 182.207031 214.117188 C 181.332031 213.941406 180.472656 213.726562 179.621094 213.46875 C 178.773438 213.210938 177.9375 212.914062 177.113281 212.574219 C 176.292969 212.230469 175.492188 211.851562 174.707031 211.433594 C 173.921875 211.015625 173.160156 210.558594 172.421875 210.066406 C 171.683594 209.570312 170.972656 209.042969 170.285156 208.476562 C 169.597656 207.914062 168.9375 207.316406 168.308594 206.691406 C 167.683594 206.0625 167.085938 205.402344 166.523438 204.714844 C 165.957031 204.027344 165.429688 203.316406 164.933594 202.578125 C 164.441406 201.839844 163.984375 201.078125 163.566406 200.292969 C 163.148438 199.507812 162.769531 198.707031 162.425781 197.886719 C 162.085938 197.0625 161.789062 196.226562 161.53125 195.378906 C 161.273438 194.527344 161.058594 193.667969 160.882812 192.792969 C 160.710938 191.921875 160.578125 191.042969 160.492188 190.160156 C 160.40625 189.277344 160.363281 188.390625 160.363281 187.5 C 160.363281 186.609375 160.40625 185.722656 160.492188 184.839844 C 160.578125 183.957031 160.710938 183.078125 160.882812 182.207031 C 161.058594 181.332031 161.273438 180.472656 161.53125 179.621094 C 161.789062 178.773438 162.085938 177.9375 162.425781 177.113281 C 162.769531 176.292969 163.148438 175.492188 163.566406 174.707031 C 163.984375 173.921875 164.441406 173.160156 164.933594 172.421875 C 165.429688 171.683594 165.957031 170.972656 166.523438 170.285156 C 167.085938 169.597656 167.683594 168.9375 168.308594 168.308594 C 168.9375 167.683594 169.597656 167.085938 170.285156 166.523438 C 170.972656 165.957031 171.683594 165.429688 172.421875 164.933594 C 173.160156 164.441406 173.921875 163.984375 174.707031 163.566406 C 175.492188 163.148438 176.292969 162.769531 177.113281 162.425781 C 177.9375 162.085938 178.773438 161.789062 179.621094 161.53125 C 180.472656 161.273438 181.332031 161.058594 182.207031 160.882812 C 183.078125 160.710938 183.957031 160.578125 184.839844 160.492188 C 185.722656 160.40625 186.609375 160.363281 187.5 160.363281 C 188.390625 160.363281 189.277344 160.40625 190.160156 160.492188 C 191.042969 160.578125 191.921875 160.710938 192.792969 160.882812 C 193.667969 161.058594 194.527344 161.273438 195.378906 161.53125 C 196.226562 161.789062 197.0625 162.085938 197.886719 162.425781 C 198.707031 162.769531 199.507812 163.148438 200.292969 163.566406 C 201.078125 163.984375 201.839844 164.441406 202.578125 164.933594 C 203.316406 165.429688 204.027344 165.957031 204.714844 166.523438 C 205.402344 167.085938 206.0625 167.683594 206.691406 168.308594 C 207.316406 168.9375 207.914062 169.597656 208.476562 170.285156 C 209.042969 170.972656 209.570312 171.683594 210.066406 172.421875 C 210.558594 173.160156 211.015625 173.921875 211.433594 174.707031 C 211.851562 175.492188 212.230469 176.292969 212.574219 177.113281 C 212.914062 177.9375 213.210938 178.773438 213.46875 179.621094 C 213.726562 180.472656 213.941406 181.332031 214.117188 182.207031 C 214.289062 183.078125 214.421875 183.957031 214.507812 184.839844 C 214.59375 185.722656 214.636719 186.609375 214.636719 187.5 Z M 214.636719 187.5 "/>
<path style=" stroke:none;fill-rule:nonzero;fill:rgb(27.839661%,16.859436%,16.079712%);fill-opacity:1;" d="M 187.5 217.105469 C 171.21875 217.105469 157.894531 203.78125 157.894531 187.5 C 157.894531 171.21875 171.21875 157.894531 187.5 157.894531 C 203.78125 157.894531 217.105469 171.21875 217.105469 187.5 C 217.105469 203.78125 203.78125 217.105469 187.5 217.105469 Z M 187.5 162.828125 C 173.683594 162.828125 162.828125 173.683594 162.828125 187.5 C 162.828125 201.316406 173.683594 212.171875 187.5 212.171875 C 201.316406 212.171875 212.171875 201.316406 212.171875 187.5 C 212.171875 173.683594 201.316406 162.828125 187.5 162.828125 Z M 187.5 162.828125 "/>
<path style=" stroke:none;fill-rule:nonzero;fill:rgb(27.839661%,16.859436%,16.079712%);fill-opacity:1;" d="M 187.5 206.25 C 187.007812 206.25 186.019531 205.757812 186.019531 204.769531 C 186.019531 203.78125 186.511719 203.289062 187.5 203.289062 C 189.472656 203.289062 190.953125 202.796875 192.925781 202.300781 C 195.394531 201.316406 197.367188 199.835938 199.34375 198.355469 C 199.835938 197.863281 200.824219 197.863281 201.316406 198.355469 C 201.808594 198.847656 201.808594 199.835938 201.316406 200.328125 C 199.34375 202.300781 196.875 204.277344 193.914062 205.261719 C 191.941406 205.757812 189.472656 206.25 187.5 206.25 Z M 187.5 206.25 "/>
<path style=" stroke:none;fill-rule:nonzero;fill:rgb(27.839661%,16.859436%,16.079712%);fill-opacity:1;" d="M 202.796875 196.382812 C 202.796875 196.382812 202.300781 196.382812 202.300781 196.382812 C 201.808594 195.886719 201.316406 195.394531 201.808594 194.902344 C 202.796875 192.925781 203.289062 190.460938 203.289062 187.992188 C 203.289062 181.578125 199.835938 176.152344 194.40625 173.683594 C 193.914062 173.191406 193.421875 172.699219 193.914062 172.203125 C 194.40625 171.710938 194.902344 171.21875 195.394531 171.710938 C 201.808594 174.671875 205.757812 181.085938 205.757812 188.488281 C 205.757812 191.449219 205.261719 193.914062 203.78125 196.875 C 203.78125 195.886719 203.289062 196.382812 202.796875 196.382812 Z M 202.796875 196.382812 "/>
<path style=" stroke:none;fill-rule:nonzero;fill:rgb(27.839661%,16.859436%,16.079712%);fill-opacity:1;" d="M 178.125 174.175781 C 177.632812 174.175781 177.136719 174.175781 177.136719 173.683594 C 176.644531 173.191406 177.136719 172.203125 177.632812 172.203125 C 180.59375 170.230469 184.046875 169.242188 187.5 169.242188 C 187.992188 169.242188 188.980469 169.738281 188.980469 170.722656 C 188.980469 171.710938 188.488281 172.203125 187.5 172.203125 C 184.539062 172.203125 181.578125 173.191406 178.617188 174.671875 C 178.617188 174.175781 178.617188 174.175781 178.125 174.175781 Z M 178.125 174.175781 "/>
<path style=" stroke:none;fill-rule:nonzero;fill:rgb(27.839661%,16.859436%,16.079712%);fill-opacity:1;" d="M 204.769531 122.367188 C 204.277344 122.367188 204.277344 122.367188 203.78125 121.875 C 185.527344 99.175781 168.257812 84.375 152.46875 77.960938 C 151.972656 77.46875 151.480469 76.972656 151.972656 76.480469 C 152.46875 75.988281 152.960938 75.492188 153.453125 75.988281 C 169.738281 82.894531 187.007812 98.191406 205.757812 120.886719 C 206.25 121.382812 206.25 122.367188 205.757812 122.863281 C 205.261719 121.875 205.261719 122.367188 204.769531 122.367188 Z M 204.769531 122.367188 "/>
<path style=" stroke:none;fill-rule:nonzero;fill:rgb(27.839661%,16.859436%,16.079712%);fill-opacity:1;" d="M 120.886719 77.960938 C 120.394531 77.960938 120.394531 77.960938 119.902344 77.46875 C 119.40625 76.972656 119.40625 75.988281 119.902344 75.492188 C 121.382812 74.507812 129.277344 69.078125 143.585938 72.039062 C 144.078125 72.039062 144.574219 73.027344 144.574219 73.519531 C 144.574219 74.011719 143.585938 74.507812 143.09375 74.507812 C 129.769531 71.546875 122.863281 76.480469 121.875 77.46875 C 121.382812 77.46875 121.382812 77.960938 120.886719 77.960938 Z M 120.886719 77.960938 "/>
<path style=" stroke:none;fill-rule:nonzero;fill:rgb(27.839661%,16.859436%,16.079712%);fill-opacity:1;" d="M 302.46875 214.636719 C 301.972656 214.636719 301.972656 214.636719 301.480469 214.144531 C 300.988281 213.652344 300.988281 212.664062 301.480469 212.171875 C 312.828125 202.796875 317.269531 191.941406 314.800781 179.605469 C 314.800781 179.113281 315.296875 178.125 315.789062 178.125 C 316.28125 178.125 317.269531 178.617188 317.269531 179.113281 C 320.230469 191.941406 315.296875 204.277344 302.960938 214.144531 C 302.960938 214.636719 302.46875 214.636719 302.46875 214.636719 Z M 302.46875 214.636719 "/>
<path style=" stroke:none;fill-rule:nonzero;fill:rgb(27.839661%,16.859436%,16.079712%);fill-opacity:1;" d="M 281.25 226.480469 C 280.757812 226.480469 280.261719 225.988281 280.261719 225.492188 C 280.261719 225 280.261719 224.011719 281.25 224.011719 C 281.25 224.011719 288.15625 221.546875 295.558594 217.105469 C 296.050781 216.613281 297.039062 217.105469 297.039062 217.597656 C 297.53125 218.09375 297.039062 219.078125 296.546875 219.078125 C 288.652344 224.011719 281.742188 225.988281 281.25 226.480469 Z M 281.25 226.480469 "/>
<path style=" stroke:none;fill-rule:nonzero;fill:rgb(27.839661%,16.859436%,16.079712%);fill-opacity:1;" d="M 133.71875 303.949219 C 120.394531 303.453125 112.007812 293.585938 109.046875 275.824219 C 109.046875 275.328125 109.539062 274.34375 110.03125 274.34375 C 110.527344 274.34375 111.511719 274.835938 111.511719 275.328125 C 114.472656 292.105469 121.875 300.988281 133.71875 301.480469 C 134.210938 301.480469 134.703125 301.972656 134.703125 302.960938 C 135.199219 303.453125 134.703125 303.949219 133.71875 303.949219 Z M 133.71875 303.949219 "/>
<path style=" stroke:none;fill-rule:nonzero;fill:rgb(27.839661%,16.859436%,16.079712%);fill-opacity:1;" d="M 109.046875 264.96875 C 108.550781 264.96875 108.058594 264.472656 107.566406 263.980469 C 107.074219 252.632812 108.550781 242.761719 109.046875 241.28125 C 109.046875 240.789062 110.03125 240.296875 110.527344 240.296875 C 111.019531 240.296875 111.511719 241.28125 111.511719 241.777344 C 111.511719 242.269531 109.539062 252.136719 110.03125 263.488281 C 110.527344 264.472656 110.03125 264.96875 109.046875 264.96875 Z M 109.046875 264.96875 "/>
</g>
</svg>
