<?xml version="1.0" encoding="UTF-8"?>
<svg xmlns="http://www.w3.org/2000/svg" xmlns:xlink="http://www.w3.org/1999/xlink" width="375pt" height="374.999991pt" viewBox="0 0 375 374.999991" version="1.2">
<defs>
<clipPath id="clip1">
  <path d="M 14.839844 37.5 L 314 37.5 L 314 303 L 14.839844 303 Z M 14.839844 37.5 "/>
</clipPath>
<clipPath id="clip2">
  <path d="M 221 95 L 359.523438 95 L 359.523438 337.5 L 221 337.5 Z M 221 95 "/>
</clipPath>
</defs>
<g id="surface1">
<g clip-path="url(#clip1)" clip-rule="nonzero">
<path style=" stroke:none;fill-rule:evenodd;fill:rgb(0%,58.81958%,53.329468%);fill-opacity:1;" d="M 210.160156 256.5625 L 190.050781 256.5625 L 198.132812 288.875 C 198.429688 290.136719 199.6875 291.09375 200.945312 291.09375 L 210.160156 291.09375 L 210.160156 302.605469 L 112.5 302.605469 C 109.265625 302.605469 106.753906 300.027344 106.753906 296.851562 C 106.753906 293.792969 109.328125 291.09375 112.558594 291.09375 L 127.457031 291.09375 C 128.773438 291.09375 129.972656 290.074219 130.269531 288.875 L 138.351562 256.5625 L 32.191406 256.5625 C 22.617188 256.5625 14.839844 248.769531 14.839844 239.355469 L 14.839844 55.070312 C 14.839844 45.535156 22.496094 37.863281 32.191406 37.863281 L 296.210938 37.863281 C 305.785156 37.863281 313.5625 45.65625 313.5625 55.070312 L 313.5625 83.90625 L 210.160156 83.90625 Z M 178.085938 256.5625 L 150.316406 256.5625 L 141.699219 291.09375 L 186.703125 291.09375 Z M 178.085938 256.5625 "/>
</g>
<path style=" stroke:none;fill-rule:evenodd;fill:rgb(100%,100%,100%);fill-opacity:1;" d="M 175.691406 233.542969 C 175.691406 239.898438 170.542969 245.050781 164.199219 245.050781 C 157.859375 245.050781 152.710938 239.898438 152.710938 233.542969 C 152.710938 227.1875 157.859375 222.03125 164.199219 222.03125 C 170.542969 222.03125 175.691406 227.1875 175.691406 233.542969 Z M 175.691406 233.542969 "/>
<g clip-path="url(#clip2)" clip-rule="nonzero">
<path style=" stroke:none;fill-rule:evenodd;fill:rgb(91.369629%,11.759949%,38.819885%);fill-opacity:1;" d="M 238.941406 95.414062 L 342.226562 95.414062 C 351.800781 95.414062 359.523438 103.089844 359.523438 112.742188 L 359.523438 319.8125 C 359.523438 329.402344 351.863281 337.136719 342.226562 337.136719 L 238.941406 337.136719 C 229.367188 337.136719 221.648438 329.464844 221.648438 319.8125 L 221.648438 112.742188 C 221.648438 103.148438 229.308594 95.414062 238.941406 95.414062 Z M 238.941406 95.414062 "/>
</g>
<path style=" stroke:none;fill-rule:evenodd;fill:rgb(100%,100%,100%);fill-opacity:1;" d="M 302.074219 314.117188 C 302.074219 320.472656 296.929688 325.625 290.585938 325.625 C 284.242188 325.625 279.097656 320.472656 279.097656 314.117188 C 279.097656 307.761719 284.242188 302.605469 290.585938 302.605469 C 296.929688 302.605469 302.074219 307.761719 302.074219 314.117188 Z M 302.074219 314.117188 "/>
<path style=" stroke:none;fill-rule:evenodd;fill:rgb(100%,100%,100%);fill-opacity:1;" d="M 284.839844 112.679688 C 284.839844 119.035156 279.695312 124.191406 273.351562 124.191406 C 267.007812 124.191406 261.863281 119.035156 261.863281 112.679688 C 261.863281 106.328125 267.007812 101.171875 273.351562 101.171875 C 279.695312 101.171875 284.839844 106.328125 284.839844 112.679688 Z M 284.839844 112.679688 "/>
<path style=" stroke:none;fill-rule:evenodd;fill:rgb(100%,100%,100%);fill-opacity:1;" d="M 296.210938 106.925781 L 307.9375 106.925781 C 311.050781 106.925781 313.5625 109.625 313.5625 112.679688 C 313.5625 115.859375 311.109375 118.4375 307.9375 118.4375 L 296.210938 118.4375 C 293.097656 118.4375 290.585938 115.738281 290.585938 112.679688 C 290.585938 109.503906 293.039062 106.925781 296.210938 106.925781 Z M 296.210938 106.925781 "/>
<path style=" stroke:none;fill-rule:evenodd;fill:rgb(100%,100%,100%);fill-opacity:1;" d="M 233.136719 129.945312 L 348.03125 129.945312 L 348.03125 291.09375 L 233.136719 291.09375 Z M 233.136719 129.945312 "/>
<path style=" stroke:none;fill-rule:evenodd;fill:rgb(96.078491%,96.078491%,96.078491%);fill-opacity:1;" d="M 233.136719 291.09375 L 348.03125 291.09375 L 348.03125 129.945312 Z M 233.136719 291.09375 "/>
<path style=" stroke:none;fill-rule:evenodd;fill:rgb(100%,100%,100%);fill-opacity:1;" d="M 302.074219 83.90625 L 238.941406 83.90625 C 222.964844 83.90625 210.160156 96.792969 210.160156 112.742188 L 210.160156 210.519531 L 32.191406 210.519531 C 28.960938 210.519531 26.328125 207.882812 26.328125 204.644531 L 26.328125 55.25 C 26.328125 52.011719 28.902344 49.375 32.191406 49.375 L 296.210938 49.375 C 299.441406 49.375 302.074219 52.011719 302.074219 55.25 Z M 302.074219 83.90625 "/>
</g>
</svg>
