<svg
  xmlns="http://www.w3.org/2000/svg"
  viewBox="4 14 40.5 35"
  width="50px"
  height="50px"
>
  <radialGradient
    id="SVGID_1_"
		cx="19.38"
		cy="42.035"
		r="44.899"
    gradientUnits="userSpaceOnUse"
  >
    <stop offset="0" stop-color="#8abdc9" />
    <stop offset=".5" stop-color="#8abdc9" />
    <stop offset=".8" stop-color="#8abdc9" />
  </radialGradient>
  <path
    d="M35.353 21.31c-4.137.02-7.283 2.757-8.46 7.118-1.975-3.04-3.516-6.517-4.4-9.453l-4.355.02.054 11.543a4.14 4.14 0 0 1-4.119 4.158 4.14 4.14 0 0 1-4.158-4.119L9.86 19.034l-4.357.02.054 11.543c.023 4.79 3.85 8.586 8.534 8.563s8.478-3.852 8.456-8.643l-.01-1.96c.878 1.737 1.976 3.583 3.183 5.212l-2.663 12.753 4.464-.02 1.92-9.266c1.747 1.082 3.7 1.725 5.996 1.714 4.792-.023 8.695-3.96 8.67-8.97a8.74 8.74 0 0 0-8.753-8.671zm.062 13.177c-1.742.008-3.487-.746-4.908-1.938l.427-1.743v-.1c.32-1.854 1.282-5.016 4.55-5.03A4.37 4.37 0 0 1 39.861 30c-.098 2.505-2.157 4.475-4.445 4.486z"
    style="fill: url(#SVGID_1_); stroke: #050a30; stroke-width: 1.5px;"
  />
</svg>
